<svg version="1.1" xmlns="http://www.w3.org/2000/svg" xmlns:xlink="http://www.w3.org/1999/xlink" width="123.67993" height="103.02419" viewBox="0,0,123.67993,103.02419"><g transform="translate(-178.35209,-138.48791)"><g stroke-miterlimit="10"><path d="M204.06613,159.29969c0,-6.43949 5.22026,-11.65973 11.65973,-11.65973c6.43949,0 11.65973,5.22026 11.65973,11.65973c0,6.43949 -5.22026,11.65973 -11.65973,11.65973c-6.43949,0 -11.65973,-5.22024 -11.65973,-11.65973z" fill="none" stroke-opacity="0.8" stroke="#b0b0b0" stroke-width="12"/><path d="M259.09275,159.32428c0,-6.43949 5.22026,-11.65973 11.65973,-11.65973c6.43949,0 11.65973,5.22026 11.65973,11.65973c0,6.43949 -5.22026,11.65973 -11.65973,11.65973c-6.43949,0 -11.65973,-5.22026 -11.65973,-11.65973z" fill="none" stroke-opacity="0.8" stroke="#b0b0b0" stroke-width="12"/><path d="M226.7125,214.51344c-0.01183,6.43949 -5.24167,11.65008 -11.68116,11.63824c-6.43949,-0.01183 -11.65012,-5.24167 -11.63829,-11.68112c0.01183,-6.43949 5.24167,-11.65012 11.68116,-11.63829c6.43949,0.01183 11.65012,5.24167 11.63829,11.68116z" fill="none" stroke-opacity="0.8" stroke="#b0b0b0" stroke-width="12"/><path d="M258.44498,214.90234c0,-6.43949 5.22026,-11.65973 11.65973,-11.65973c6.43949,0 11.65973,5.22026 11.65973,11.65973c0,6.43949 -5.22026,11.65973 -11.65973,11.65973c-6.43949,0 -11.65973,-5.22026 -11.65973,-11.65973z" fill="none" stroke-opacity="0.8" stroke="#b0b0b0" stroke-width="12"/><path d="M187.83586,241.5121v-103.02419h104.32829v103.02419z" fill-opacity="0.01176" fill="#ffffff" stroke="none" stroke-width="0"/><text transform="translate(178.54414,194.43154) scale(0.3841,0.3841)" font-size="40" xml:space="preserve" fill-opacity="0.50196" fill="#000000" stroke="none" stroke-width="1" font-family="Sans Serif" font-weight="normal" text-anchor="start"><tspan x="0" dy="0">拖动我来移动画布</tspan></text></g></g></svg>