<svg version="1.1" xmlns="http://www.w3.org/2000/svg" xmlns:xlink="http://www.w3.org/1999/xlink" width="63.86794" height="69.29393" viewBox="0,0,63.86794,69.29393"><g transform="translate(-203.91475,-161.05345)"><g stroke-linecap="round" stroke-miterlimit="10"><path d="M256.38669,161.99395c2.56586,0.0708 5.35732,1.22687 7.31059,2.9887c1.66205,1.50025 3.22975,3.92181 2.96274,6.19042c-0.24532,2.05839 -2.79151,3.38644 -4.39663,4.86488c-1.27995,1.18836 -2.53158,3.95781 -4.35871,3.57132c-2.32943,-0.51369 -3.15761,-3.75768 -5.02259,-5.32604c-1.36531,-1.14976 -4.78437,-0.80982 -4.73429,-2.54323c0.17668,-2.89715 3.39462,-4.7537 5.19542,-6.87598c0.90116,-1.06184 1.64631,-2.90881 3.04345,-2.87006z" fill="#ffffff" stroke="none" stroke-width="1"/><path d="M211.16361,211.46505c2.42736,-1.58973 5.99431,-4.75219 8.22317,-2.90312c3.18462,2.58436 4.02883,8.15853 2.78935,12.10391c-0.88455,2.81646 -5.24474,2.90613 -7.89692,4.39233c-1.66558,0.79012 -3.37253,1.50283 -5.06538,2.44086c-1.13626,0.62735 -2.07359,1.45881 -3.38595,1.93522c-0.37012,0.13342 -1.37057,0.77141 -1.09793,-0.4021c1.09306,-4.67988 2.80786,-9.24313 4.47192,-13.74056c0.47814,-1.29399 0.77161,-3.02692 1.96175,-3.82656z" fill="#ffffff" stroke="none" stroke-width="1"/><path d="M222.75563,198.0549c8.03362,-8.79878 16.11432,-17.61727 24.24949,-26.44331c2.04196,-2.20425 0.97713,-1.62693 1.90449,-1.80354c1.25587,-0.2864 2.78059,0.02084 4.22481,0.67175c1.6151,0.71048 3.1554,1.86273 4.37671,3.28832c1.18371,1.35479 2.32258,3.09134 2.62222,4.79164c0.16027,1.03005 0.64596,0.16752 -1.35953,2.53829c-8.07481,9.15062 -16.51079,18.10189 -24.709,27.18039c-3.44779,3.81808 -6.78032,7.626 -10.225,11.33635c-0.82302,1.01629 -0.68899,1.64098 -1.4165,1.55706c-0.70844,-0.08997 -1.02221,-1.19173 -1.60637,-1.71366c-0.59897,-0.53467 -1.1957,-1.20374 -1.92538,-1.44032c-0.69278,-0.22422 -1.30899,0.22481 -1.99944,0.16817c-0.7281,-0.05939 -1.7954,0.141 -2.20639,-0.51285c-0.51106,-0.82011 0.18441,-1.85343 0.1671,-2.88991c0.03874,-0.47473 0.30875,-1.03842 -0.09493,-1.63535c-0.38401,-0.51215 -1.18358,-0.46429 -1.71842,-0.7593c-0.76563,-0.42894 -3.07326,0.03697 -2.24436,-1.16698c3.29948,-4.85014 7.93652,-8.77534 11.9605,-13.16677z" fill="none" stroke="#000000" stroke-width="1.5"/><path d="M216.16454,217.53026l38.81933,-45.66892" fill="none" stroke="#000000" stroke-width="1.5"/><path d="M204.92014,228.85278c0,0 0.1239,-0.61709 0.2119,-0.91857c0.32311,-1.10395 0.65879,-2.20755 1.02152,-3.29925c0.24585,-0.73926 0.54813,-1.46062 0.8042,-2.19588c0.55094,-1.58186 1.10643,-3.1673 1.61925,-4.76139c0.23284,-0.72484 0.37923,-1.47888 0.61942,-2.20131c0.36837,-1.10855 1.20631,-3.29383 1.20631,-3.29383" fill="none" stroke="#000000" stroke-width="1.5"/><path d="M205.08328,229.59738c0,0 0.25503,0.05777 0.3696,0.01082c0.45904,-0.18851 0.88975,-0.44518 1.31526,-0.70126c0.45339,-0.27301 0.86728,-0.61304 1.32067,-0.88606c0.42551,-0.25608 0.8757,-0.47075 1.31526,-0.70126c1.56211,-0.81905 3.09523,-1.70924 4.69578,-2.45169c1.15129,-0.53443 2.39278,-0.86499 3.5545,-1.37544c1.33633,-0.58743 2.63329,-1.27001 3.94033,-1.91897c0.56757,-0.28151 1.69025,-0.87522 1.69025,-0.87522" fill="none" stroke="#000000" stroke-width="1.5"/><path d="M205.12999,229.26582l-0.21524,-0.22826" fill="none" stroke="#000000" stroke-width="2"/><path d="M249.71884,168.82283c0,0 3.17473,-4.16045 4.96438,-5.96768c0.40561,-0.47329 0.72489,-1.03241 1.31577,-1.0517c1.3194,-0.0859 2.70137,-0.01971 3.91568,0.58209c1.9643,0.97417 3.89524,2.20755 5.33827,3.85564c1.05691,1.21856 1.52161,2.82087 1.77975,4.3743c0.16467,0.51805 -0.31096,1.01731 -0.58805,1.46242c-0.59822,0.96132 -1.22553,1.90551 -1.94838,2.70744c-1.25552,1.49269 -3.97701,4.16659 -3.97701,4.16659" fill="none" stroke="#000000" stroke-width="1.5"/><path d="M208.78406,223.23244c0.4741,0.0546 0.94236,0.28361 1.28947,0.60672c0.38381,0.35823 0.6311,0.83157 0.83695,1.30517c0.13718,0.31697 0.24464,0.7396 0.07836,1.11203c-0.0549,0.20701 -0.25201,0.14205 -0.63916,0.35117c-1.55232,0.83858 -3.75889,2.9719 -4.69578,2.4517c-0.8578,-0.51788 0.06286,-2.85017 0.30944,-4.2449c0.09866,-0.5135 0.13047,-1.19469 0.59775,-1.46211c0.63845,-0.35268 1.5145,-0.20491 2.22297,-0.11978z" fill="#000000" stroke="none" stroke-width="1"/></g></g></svg>