<svg version="1.1" xmlns="http://www.w3.org/2000/svg" xmlns:xlink="http://www.w3.org/1999/xlink" width="282.06258" height="120.00002" viewBox="0,0,282.06258,120.00002"><g transform="translate(-99.99992,-119.99999)"><g data-paper-data="{&quot;isPaintingLayer&quot;:true}" stroke-linejoin="miter" stroke-miterlimit="10" stroke-dasharray="" stroke-dashoffset="0" style="mix-blend-mode: normal"><g fill-rule="nonzero" stroke="none" stroke-width="0" stroke-linecap="butt"><path d="M202.69439,226.28125c-10.17571,0 -18.42476,-7.70378 -18.42476,-17.20687v-56.14875c0,-9.5031 8.24904,-17.20688 18.42476,-17.20688h160.17375c10.17571,0 18.42476,7.70378 18.42476,17.20688v56.14875c0,9.5031 -8.24904,17.20687 -18.42476,17.20687z" fill="#ffffff"/><path d="M362.86814,136.4375h-160.17375c-9.74341,0 -17.65513,7.38875 -17.65513,16.48813v56.14875c0,9.09938 7.9271,16.48812 17.65513,16.48812h160.17375c9.74341,0 17.65513,-7.40313 17.65513,-16.48812v-56.14875c0,-9.09938 -7.9271,-16.48813 -17.65513,-16.48813M362.86814,135c10.60539,0 19.19437,8.02125 19.19437,17.92563v56.14875c0,9.90437 -8.58898,17.92562 -19.19437,17.92562h-160.17375c-10.60539,0 -19.19437,-8.02125 -19.19437,-17.92562v-56.14875c0,-9.90438 8.58898,-17.92563 19.19437,-17.92563z" fill="#000000"/></g><text transform="translate(228.21877,204.4375) scale(1.4375,1.4375)" font-size="48" xml:space="preserve" fill="#000000" fill-rule="nonzero" stroke="none" stroke-width="1" stroke-linecap="butt" stroke-linejoin="miter" stroke-miterlimit="10" stroke-dasharray="" stroke-dashoffset="0" font-family="&quot;Microsoft YaHei&quot;, &quot;微软雅黑&quot;, STXihei, &quot;华文细黑&quot;" font-weight="300" text-anchor="start" style="mix-blend-mode: normal"><tspan x="0" dy="0">橡皮</tspan></text><path d="M181.79694,238.12501c-10.898,2.5 -32.695,2.5 -43.594,0c-19.555,-4.485 -31.883,-16.764 -36.328,-36.328c-2.512,-11.056 -2.488,-32.85 0,-43.594c4.527,-19.546 16.785,-31.788 36.328,-36.328c10.693,-2.484 32.487,-2.516 43.594,0c19.567,4.433 31.675,16.812 36.328,36.328c2.452,10.285 2.548,32.058 0,43.594c-4.327,19.591 -16.773,31.843 -36.328,36.328" fill="#fbc02d" fill-rule="evenodd" stroke="none" stroke-width="1" stroke-linecap="butt"/><path d="M191.63994,228.28101c7.165,-1.644 13.365,-4.341 18.572,-8.048c-6.426,9.029 -15.975,15.038 -28.416,17.892c-10.898,2.5 -32.694,2.5 -43.594,0c-19.555,-4.486 -31.883,-16.764 -36.328,-36.328c-2.51,-11.056 -2.487,-32.851 0,-43.594c2.876,-12.412 8.879,-21.866 17.874,-28.286c-3.687,5.167 -6.379,11.312 -8.03,18.442c-2.488,10.744 -2.512,32.538 0,43.594c4.445,19.564 16.773,31.843 36.328,36.328c10.899,2.5 32.696,2.5 43.594,0" fill="#e8ad28" fill-rule="evenodd" stroke="none" stroke-width="1" stroke-linecap="butt"/><g fill-rule="nonzero" stroke="#fbc02d" stroke-width="2" stroke-linecap="butt"><path d="M193.04578,192.35653c2.0654,2.87425 1.56372,6.76796 -1.12053,8.69683l-15.85986,11.39674c-2.68426,1.92888 -6.53463,1.16251 -8.60003,-1.71174l-32.51112,-45.24292c-2.0654,-2.87425 -1.56373,-6.76795 1.12054,-8.69683l15.85986,-11.39674c2.68426,-1.92889 6.53462,-1.16252 8.60003,1.71173z" fill="#ffffff"/><path d="M135.15726,165.34956l32.51111,45.24292c1.97766,2.75214 5.67058,3.48717 8.2408,1.64023l15.85986,-11.39674c2.57022,-1.84694 3.04827,-5.58576 1.07373,-8.33356l-32.51112,-45.24292c-1.97766,-2.75214 -5.67464,-3.48425 -8.24079,-1.64023l-15.85986,11.39674c-2.57022,1.84694 -3.04827,5.58577 -1.07373,8.33356M134.75122,165.64133c-2.15262,-2.99561 -1.63027,-7.04978 1.16734,-9.06011l15.85986,-11.39674c2.79761,-2.01033 6.80664,-1.21238 8.95925,1.78323l32.51112,45.24292c2.15262,2.99561 1.63027,7.04978 -1.16734,9.06011l-15.85986,11.39674c-2.7976,2.01033 -6.80664,1.21238 -8.95926,-1.78323z" fill="#000000"/></g><path d="M150.84375,187.67462l25,-18" fill="none" fill-rule="nonzero" stroke="#fbc02d" stroke-width="5.5" stroke-linecap="round"/><path d="M163.65625,215.92462v-8.375h23v8.375z" fill="#fbc02d" fill-rule="nonzero" stroke="none" stroke-width="0" stroke-linecap="butt"/><path d="M164.40625,206.79962h20" fill="none" fill-rule="nonzero" stroke="#fbc02d" stroke-width="2" stroke-linecap="round"/></g></g></svg>