<svg version="1.1" xmlns="http://www.w3.org/2000/svg" xmlns:xlink="http://www.w3.org/1999/xlink" width="20" height="19.75" viewBox="0,0,20,19.75"><g transform="translate(-230,-180.125)"><g stroke="none" stroke-miterlimit="10"><path d="M238.21832,183.7642c0,-0.97105 0.78719,-1.75824 1.75824,-1.75824c0.97105,0 1.75824,0.78719 1.75824,1.75824c0,0.97105 -0.78719,1.75824 -1.75824,1.75824c-0.97105,0 -1.75824,-0.78719 -1.75824,-1.75824z" fill="#b7b7b7" stroke-width="0.5"/><path d="M238.21832,189.625c0,-0.97105 0.78719,-1.75824 1.75824,-1.75824c0.97105,0 1.75824,0.78719 1.75824,1.75824c0,0.97105 -0.78719,1.75824 -1.75824,1.75824c-0.97105,0 -1.75824,-0.78719 -1.75824,-1.75824z" fill="#b7b7b7" stroke-width="0.5"/><path d="M238.2652,195.4858c0,-0.97105 0.78719,-1.75824 1.75824,-1.75824c0.97105,0 1.75824,0.78719 1.75824,1.75824c0,0.97105 -0.78719,1.75824 -1.75824,1.75824c-0.97105,0 -1.75824,-0.78719 -1.75824,-1.75824z" fill="#b7b7b7" stroke-width="0.5"/><path d="M230,199.875v-19.75h20v19.75z" fill-opacity="0.01176" fill="#ffffff" stroke-width="0"/></g></g></svg>