<svg version="1.1" xmlns="http://www.w3.org/2000/svg" xmlns:xlink="http://www.w3.org/1999/xlink" width="120.50006" height="121.00002" viewBox="0,0,120.50006,121.00002"><defs><linearGradient x1="179.99991" y1="189.75" x2="300.00009" y2="189.75" gradientUnits="userSpaceOnUse" id="color-1"><stop offset="0" stop-color="#fae4ae"/><stop offset="1" stop-color="#faaed3"/></linearGradient><linearGradient x1="180.00003" y1="195.20851" x2="290.21192" y2="195.20851" gradientUnits="userSpaceOnUse" id="color-2"><stop offset="0" stop-color="#fae4ae"/><stop offset="1" stop-color="#faaed3"/></linearGradient><linearGradient x1="243.65621" y1="221.48712" x2="266.65621" y2="221.48712" gradientUnits="userSpaceOnUse" id="color-3"><stop offset="0" stop-color="#fae4ae"/><stop offset="1" stop-color="#faaed3"/></linearGradient></defs><g transform="translate(-179.50003,-129.74999)"><g data-paper-data="{&quot;isPaintingLayer&quot;:true}" stroke-linejoin="miter" stroke-miterlimit="10" stroke-dasharray="" stroke-dashoffset="0" style="mix-blend-mode: normal"><path d="M261.79692,247.87501c-10.898,2.5 -32.695,2.5 -43.594,0c-19.555,-4.485 -31.883,-16.764 -36.328,-36.328c-2.512,-11.056 -2.488,-32.85 0,-43.594c4.527,-19.546 16.785,-31.788 36.328,-36.328c10.693,-2.484 32.487,-2.516 43.594,0c19.567,4.433 31.675,16.812 36.328,36.328c2.452,10.285 2.548,32.058 0,43.594c-4.327,19.591 -16.773,31.843 -36.328,36.328" fill="url(#color-1)" fill-rule="evenodd" stroke="none" stroke-width="1" stroke-linecap="butt"/><path d="M271.63992,238.53101c7.165,-1.644 13.365,-4.341 18.572,-8.048c-6.426,9.029 -15.975,15.038 -28.416,17.892c-10.898,2.5 -32.694,2.5 -43.594,0c-19.555,-4.486 -31.883,-16.764 -36.328,-36.328c-2.51,-11.056 -2.487,-32.851 0,-43.594c2.876,-12.412 8.879,-21.866 17.874,-28.286c-3.687,5.167 -6.379,11.312 -8.03,18.442c-2.488,10.744 -2.512,32.538 0,43.594c4.445,19.564 16.773,31.843 36.328,36.328c10.899,2.5 32.696,2.5 43.594,0" fill="url(#color-2)" fill-rule="evenodd" stroke="#ffffff" stroke-width="1" stroke-linecap="butt"/><g fill-rule="nonzero" stroke="#fbc02d" stroke-width="2" stroke-linecap="butt"><path d="M273.04576,202.10653c2.0654,2.87425 1.56372,6.76796 -1.12053,8.69683l-15.85986,11.39674c-2.68426,1.92888 -6.53463,1.16251 -8.60003,-1.71174l-32.51112,-45.24292c-2.0654,-2.87425 -1.56373,-6.76795 1.12054,-8.69683l15.85986,-11.39674c2.68426,-1.92889 6.53462,-1.16252 8.60003,1.71173z" fill="#ffffff"/><path d="M215.15724,175.09956l32.51111,45.24292c1.97766,2.75214 5.67058,3.48717 8.2408,1.64023l15.85986,-11.39674c2.57022,-1.84694 3.04827,-5.58576 1.07373,-8.33356l-32.51112,-45.24292c-1.97766,-2.75214 -5.67464,-3.48425 -8.24079,-1.64023l-15.85986,11.39674c-2.57022,1.84694 -3.04827,5.58577 -1.07373,8.33356M214.7512,175.39133c-2.15262,-2.99561 -1.63027,-7.04978 1.16734,-9.06011l15.85986,-11.39674c2.79761,-2.01033 6.80664,-1.21238 8.95925,1.78323l32.51112,45.24292c2.15262,2.99561 1.63027,7.04978 -1.16734,9.06011l-15.85986,11.39674c-2.7976,2.01033 -6.80664,1.21238 -8.95926,-1.78323z" fill="#000000"/></g><path d="M230.84371,197.42462l25,-18" fill="none" fill-rule="nonzero" stroke="#fbc02d" stroke-width="5.5" stroke-linecap="round"/><path d="M243.65621,225.67462v-8.375h23v8.375z" fill="url(#color-3)" fill-rule="nonzero" stroke="none" stroke-width="0" stroke-linecap="butt"/><path d="M244.40621,216.54962h20" fill="none" fill-rule="nonzero" stroke="#fbc02d" stroke-width="2" stroke-linecap="round"/></g></g></svg>