<svg version="1.1" xmlns="http://www.w3.org/2000/svg" xmlns:xlink="http://www.w3.org/1999/xlink" width="282.06258" height="120.00002" viewBox="0,0,282.06258,120.00002"><g transform="translate(-98.96871,-119.99999)"><g data-paper-data="{&quot;isPaintingLayer&quot;:true}" stroke="none" stroke-linecap="butt" stroke-linejoin="miter" stroke-miterlimit="10" stroke-dasharray="" stroke-dashoffset="0" style="mix-blend-mode: normal"><g fill-rule="nonzero" stroke-width="0"><path d="M201.66317,226.28125c-10.17571,0 -18.42476,-7.70378 -18.42476,-17.20687v-56.14875c0,-9.5031 8.24904,-17.20688 18.42476,-17.20688h160.17375c10.17571,0 18.42476,7.70378 18.42476,17.20688v56.14875c0,9.5031 -8.24904,17.20687 -18.42476,17.20687z" fill="#ffffff"/><path d="M361.83692,136.4375h-160.17375c-9.74341,0 -17.65513,7.38875 -17.65513,16.48813v56.14875c0,9.09938 7.9271,16.48812 17.65513,16.48812h160.17375c9.74341,0 17.65513,-7.40313 17.65513,-16.48812v-56.14875c0,-9.09938 -7.9271,-16.48813 -17.65513,-16.48813M361.83692,135c10.60539,0 19.19437,8.02125 19.19437,17.92563v56.14875c0,9.90437 -8.58898,17.92562 -19.19437,17.92562h-160.17375c-10.60539,0 -19.19437,-8.02125 -19.19437,-17.92562v-56.14875c0,-9.90438 8.58898,-17.92563 19.19437,-17.92563z" fill="#000000"/></g><text transform="translate(227.18755,204.4375) scale(1.4375,1.4375)" font-size="48" xml:space="preserve" fill="#000000" fill-rule="nonzero" stroke="none" stroke-width="1" stroke-linecap="butt" stroke-linejoin="miter" stroke-miterlimit="10" stroke-dasharray="" stroke-dashoffset="0" font-family="&quot;Microsoft YaHei&quot;, &quot;微软雅黑&quot;, STXihei, &quot;华文细黑&quot;" font-weight="300" text-anchor="start" style="mix-blend-mode: normal"><tspan x="0" dy="0">清屏</tspan></text><path d="M180.76572,238.12501c-10.898,2.5 -32.695,2.5 -43.594,0c-19.555,-4.485 -31.883,-16.764 -36.328,-36.328c-2.512,-11.056 -2.488,-32.85 0,-43.594c4.527,-19.546 16.785,-31.788 36.328,-36.328c10.693,-2.484 32.487,-2.516 43.594,0c19.567,4.433 31.675,16.812 36.328,36.328c2.452,10.285 2.548,32.058 0,43.594c-4.327,19.591 -16.773,31.843 -36.328,36.328" fill="#fbc02d" fill-rule="evenodd" stroke-width="1"/><path d="M190.60872,228.28101c7.165,-1.644 13.365,-4.341 18.572,-8.048c-6.426,9.029 -15.975,15.038 -28.416,17.892c-10.898,2.5 -32.694,2.5 -43.594,0c-19.555,-4.486 -31.883,-16.764 -36.328,-36.328c-2.51,-11.056 -2.487,-32.851 0,-43.594c2.876,-12.412 8.879,-21.866 17.874,-28.286c-3.687,5.167 -6.379,11.312 -8.03,18.442c-2.488,10.744 -2.512,32.538 0,43.594c4.445,19.564 16.773,31.843 36.328,36.328c10.899,2.5 32.696,2.5 43.594,0" fill="#e8ad28" fill-rule="evenodd" stroke-width="1"/><path d="M181.90772,151.22401c14.142,10.475 19.322,30.464 9.507,46.888c-7.651,12.8 -22.964,19.656 -37.783,16.916c-22.3,-4.124 -34.77,-26.779 -27.71,-46.867c-0.66963,-0.55875 -1.3168,-1.14388 -1.94,-1.754c-3.925,-3.924 -3.036,-8.733 1.175,-12.583c3.434,-3.14 12.498,-8.253 19.33,-9.283c5.517,-0.832 9.418,1.463 10.283,6.908c0.751,4.724 -0.043,15.254 -1.709,21.116c-1.546,5.443 -6.337,7.882 -11.46,5.676c-0.446,-0.193 -0.955,-0.447 -1.46,-0.697c-1.166,10.051 5.642,20.081 16.706,21.963c8.043,1.368 16.341,-2.346 20.585,-9.216c5.66,-9.161 2.84,-20.401 -5.04,-26.313c-2.83,-2.123 -3.935,-5.805 -2.685,-9.085c1.855,-4.874 7.977,-6.797 12.201,-3.669" fill="#ffffff" fill-rule="evenodd" stroke-width="1"/></g></g></svg>