<svg version="1.1" xmlns="http://www.w3.org/2000/svg" xmlns:xlink="http://www.w3.org/1999/xlink" width="176.11511" height="89.18345" viewBox="0,0,176.11511,89.18345"><defs><linearGradient x1="152.32537" y1="221.76816" x2="196.16327" y2="221.76816" gradientTransform="translate(-398.69229,-597.66124) scale(2.61738,2.61738)" gradientUnits="userSpaceOnUse" id="color-1"><stop offset="0" stop-color="#ff5500"/><stop offset="1" stop-color="#ffa000"/></linearGradient></defs><g transform="translate(-152.13366,-145.08142)"><g stroke="none" stroke-miterlimit="10"><text transform="translate(152.32469,228.34293) scale(0.38206,0.38206)" font-size="57.37" xml:space="preserve" fill="url(#color-1)" fill-rule="nonzero" font-family="AdobeSongStd-Light-GBpc-EUC-H, &quot;Adobe Song Std&quot;" font-weight="300" text-anchor="start"><tspan x="0" dy="0">正在连接云服务器</tspan></text><g fill-rule="evenodd"><path d="M217.85756,181.95543l0.81596,-0.29584c0.26751,-0.0939 0.59241,-0.22057 0.97468,-0.3696c0.43876,-0.16806 0.87545,-0.34145 1.31,-0.52012c1.1761,-0.47832 2.34324,-0.97841 3.50079,-1.50002c3.27522,-1.48323 6.51015,-3.05386 9.70133,-4.7102c1.84205,-0.95381 3.77054,-1.98662 5.75642,-3.06935c3.97173,-2.16843 8.15362,-4.58277 12.24682,-7.1372c2.05219,-1.26902 4.08352,-2.57083 6.04852,-3.90318c1.96351,-1.3331 3.86517,-2.69155 5.62601,-4.10214c0.86453,-0.68642 1.69466,-1.41509 2.48737,-2.18334c0.38004,-0.38004 0.74367,-0.7705 1.04472,-1.1863c0.14903,-0.2079 0.28168,-0.42474 0.36215,-0.64233c0.08346,-0.22206 0.08346,-0.41953 -0.04024,-0.52832c-0.03356,-0.03258 -0.07235,-0.05927 -0.11475,-0.07899c-0.01937,-0.00894 -0.05141,-0.02907 -0.0611,-0.02981l-0.09166,-0.0298c-0.10928,-0.03198 -0.22172,-0.05197 -0.33532,-0.05962c-0.24252,-0.01834 -0.4862,-0.01462 -0.72804,0.01118c-0.48613,0.0496 -0.96852,0.13074 -1.44413,0.24292c-0.94338,0.21609 -1.84429,0.48957 -2.70123,0.77125c-1.71388,0.5693 -3.26234,1.16619 -4.62749,1.7109c-1.17786,0.4745 -2.34863,0.96636 -3.51197,1.47543c-1.93669,0.84577 -3.03433,1.35099 -3.03433,1.35099l0.7787,-0.38376c0.50969,-0.24665 1.25412,-0.61551 2.21315,-1.05963c1.15229,-0.53759 2.31238,-1.05827 3.47993,-1.56187c1.35397,-0.58048 2.89125,-1.21686 4.60886,-1.81001c0.89289,-0.31533 1.8,-0.58885 2.71837,-0.81968c0.48881,-0.12307 0.98516,-0.21392 1.48586,-0.27198c0.26306,-0.03159 0.52845,-0.03908 0.79286,-0.02235c0.12668,0.00671 0.29509,0.03353 0.42102,0.07079l0.0924,0.02981c0.05365,0.0149 0.07601,0.03204 0.11549,0.04918c0.07005,0.03204 0.14158,0.08122 0.20417,0.13935c0.13153,0.12241 0.21079,0.29083 0.22131,0.4702c0.01341,0.17213 -0.02683,0.32266 -0.07303,0.46201c-0.1001,0.26555 -0.23544,0.51644 -0.40239,0.74591c-0.31669,0.45307 -0.68555,0.85917 -1.0708,1.25486c-0.77274,0.78839 -1.62669,1.51567 -2.50749,2.23476c-1.76828,1.43072 -3.67144,2.8048 -5.6357,4.15207c-1.98769,1.35705 -4.00406,2.67158 -6.04777,3.94268c-4.03279,2.48211 -8.1364,4.84725 -12.30569,7.0925c-1.91543,1.03737 -3.84895,2.04102 -5.79964,3.01047c-1.74478,0.87383 -3.50231,1.72192 -5.27206,2.544c-1.49469,0.69744 -3.00268,1.36597 -4.52316,2.00524c-1.17159,0.49402 -2.35213,0.96654 -3.54103,1.41731c-0.4933,0.19002 -0.93742,0.35023 -1.32565,0.48436c-0.38748,0.1371 -0.71685,0.25335 -0.9866,0.33756l-0.82489,0.26975M246.71639,159.29266l-1.56112,0.85247c-0.99704,0.53652 -2.40689,1.32864 -4.10289,2.26903c-1.69675,0.93891 -3.65504,2.07455 -5.75268,3.28767c-2.19144,1.26625 -4.36263,2.56723 -6.51276,3.90244c-2.1615,1.31468 -4.29466,2.67542 -6.398,4.08129c-1.003,0.6781 -1.97469,1.33236 -2.88305,1.96873c-0.85413,0.59735 -1.69585,1.21225 -2.52462,1.84428c-1.5358,1.17736 -2.77724,2.21314 -3.55296,3.03506c-0.38748,0.4091 -0.66394,0.75708 -0.82565,1.01268l-0.10432,0.1699l-0.06259,0.13115l-0.05141,0.10805l0.04471,-0.11029l0.0544,-0.13562l0.09538,-0.17809c0.2211,-0.38083 0.48079,-0.73791 0.77498,-1.06559c0.74964,-0.85545 1.93073,-1.97767 3.44639,-3.19825c1.7262,-1.38776 3.50603,-2.70746 5.33539,-3.9561c2.0045,-1.37334 4.18038,-2.78096 6.38012,-4.15058c2.16657,-1.31804 4.35391,-2.60163 6.5612,-3.85028c1.05366,-0.60358 2.08647,-1.16023 3.06637,-1.68705c0.92095,-0.49433 1.84498,-0.98293 2.77202,-1.46574c1.71984,-0.9009 3.17739,-1.60285 4.1938,-2.10138c1.01939,-0.49405 1.60807,-0.7638 1.60807,-0.7638" fill="#55585b"/><path d="M246.36169,158.42976l-1.32044,0.70046c-1.24165,0.66242 -2.47915,1.33258 -3.71242,2.01046c-3.19155,1.74593 -7.71398,4.30855 -13.06277,7.51128c-2.87818,1.72425 -5.72686,3.49726 -8.54482,5.31826c-2.9978,1.94116 -6.11931,4.04849 -9.2654,6.33988c-1.57006,1.14905 -3.14312,2.35026 -4.67742,3.63195c-0.77095,0.6422 -1.51953,1.31076 -2.24444,2.0045c-0.71834,0.70046 -1.42774,1.43296 -1.98363,2.25115c-0.13578,0.19989 -0.25373,0.41134 -0.35247,0.6319c-0.09091,0.21386 -0.15349,0.4389 -0.13412,0.6237c0.02533,0.17884 0.11699,0.31222 0.30552,0.40463l0.07005,0.03428c0.01267,0.00746 -0.00075,0.00223 0.02683,0.01117l0.04546,0.01565c0.06185,0.02161 0.12445,0.04322 0.17213,0.05067c0.09836,0.02459 0.22057,0.04024 0.33756,0.0544c0.48064,0.04024 0.98511,0.00223 1.48512,-0.06707c0.50458,-0.0728 1.0058,-0.16728 1.50225,-0.28316c1.99705,-0.46946 3.96354,-1.1401 5.90768,-1.85174c3.89052,-1.43444 7.70354,-3.09021 11.4167,-4.79887c3.63289,-1.68095 7.23034,-3.43745 10.79003,-5.26832c6.93005,-3.55966 13.29601,-7.08504 18.67015,-10.24455c2.44486,-1.43711 4.87376,-2.9012 7.28623,-4.39202c1.85906,-1.1521 3.70228,-2.32957 5.52914,-3.53209c1.17443,-0.77588 2.34068,-1.56406 3.49855,-2.36441l1.22356,-0.85694l-1.21015,0.87557c-1.14581,0.81841 -2.3004,1.62448 -3.46354,2.41807c-4.15863,2.8242 -8.39868,5.52657 -12.71477,8.10369c-2.88205,1.72429 -5.78773,3.40878 -8.71622,5.05298c-3.26644,1.83918 -6.56557,3.61967 -9.89582,5.34061c-3.56087,1.84414 -7.15981,3.6138 -10.79448,5.30782c-3.7169,1.72133 -7.53216,3.39424 -11.44055,4.84582c-1.95979,0.71088 -3.93821,1.3808 -5.97624,1.85322c-0.50969,0.11475 -1.02386,0.21609 -1.54623,0.28614c-0.52162,0.07079 -1.05218,0.11327 -1.59987,0.06557c-0.13786,-0.01714 -0.27124,-0.03204 -0.42326,-0.07153c-0.07899,-0.0164 -0.13786,-0.03801 -0.19747,-0.05961l-0.0462,-0.0149c-0.0212,-0.00695 -0.04187,-0.01542 -0.06185,-0.02533l-0.10358,-0.05067c-0.14783,-0.07399 -0.27698,-0.18048 -0.3778,-0.31148c-0.10209,-0.13932 -0.16581,-0.303 -0.1848,-0.47467c-0.0298,-0.3316 0.06707,-0.61402 0.17213,-0.86961c0.11105,-0.24733 0.24397,-0.48424 0.39717,-0.70791c0.59911,-0.87631 1.32267,-1.61329 2.05666,-2.3264c0.73488,-0.69909 1.49367,-1.37263 2.275,-2.01941c1.54995,-1.28764 3.13194,-2.48886 4.71094,-3.63791c3.15802,-2.29809 6.30933,-4.37412 9.32651,-6.29367c2.83672,-1.79874 5.70379,-3.54914 8.59996,-5.25045c2.44541,-1.44053 4.91144,-2.84582 7.39728,-4.21541c3.14702,-1.739 6.31979,-3.43096 9.51727,-5.07533l1.33087,-0.68034M276.33826,150.81117c0,0 0.40239,-0.38748 1.07006,-1.09838c0.4022,-0.42413 0.78034,-0.87044 1.13265,-1.33684c0.21419,-0.28316 0.40507,-0.58319 0.5708,-0.89718c0.16022,-0.32266 0.31892,-0.71388 0.22354,-1.04473c-0.04918,-0.15947 -0.17139,-0.28316 -0.34129,-0.36588l-0.06558,-0.02907l-0.02235,-0.00969l-0.03874,-0.01117l-0.15872,-0.04694c-0.1073,-0.03353 -0.2012,-0.03204 -0.30254,-0.05216c-0.42102,-0.04397 -0.88153,-0.01192 -1.34651,0.04471c-0.93369,0.12071 -1.91062,0.35917 -2.91062,0.63861c-1.00076,0.28018 -2.02239,0.61848 -3.05741,0.97319c-1.03429,0.35769 -2.07753,0.74293 -3.11479,1.14755c-1.03395,0.39608 -2.06286,0.80521 -3.08648,1.22729c-1.01193,0.42251 -2.01045,0.83011 -2.96949,1.24518c-1.75,0.74994 -3.49424,1.51326 -5.23256,2.28989l-5.0865,2.28989c0,0 0.49032,-0.26751 1.35471,-0.72207c0.86812,-0.4471 2.10212,-1.09912 3.60512,-1.83758c2.67507,-1.32284 5.38867,-2.56633 8.13722,-3.72881c1.02538,-0.42962 2.05628,-0.84595 3.09244,-1.24889c1.04324,-0.40016 2.09466,-0.78243 3.13865,-1.13638c1.04324,-0.35545 2.08275,-0.6699 3.0999,-0.93966c1.01566,-0.27049 2.01641,-0.48212 2.98663,-0.58272c0.4866,-0.04397 0.9635,-0.07004 1.43818,-0.00223c0.11922,0.02534 0.25261,0.04024 0.35545,0.07675l0.15649,0.0529l0.0395,0.01267c0.03726,0.01341 0.03428,0.0149 0.05365,0.02384l0.08197,0.04024c0.21759,0.11178 0.4158,0.31893 0.47988,0.56856c0.0611,0.2459 0.02459,0.48212 -0.0395,0.68555c-0.06269,0.19551 -0.14691,0.38346 -0.25111,0.56036c-0.18814,0.31596 -0.40146,0.61624 -0.63786,0.89792c-0.3803,0.4515 -0.7853,0.88163 -1.21313,1.2884c-0.35097,0.34054 -0.64234,0.59166 -0.83831,0.76528l-0.30328,0.26229" fill="#55585b"/><path d="M250.08082,181.34663l1.14457,0.53727c0.74666,0.34873 1.84876,0.848 3.26085,1.45829c1.41582,0.60358 3.14237,1.32044 5.16849,2.01046c1.01343,0.3383 2.10138,0.68183 3.26904,0.93742c0.58272,0.12445 1.18705,0.23398 1.8048,0.27198c0.30775,0.01044 0.62147,0.01416 0.92177,-0.04172l0.21909,-0.0544c0.07005,-0.0231 0.13562,-0.0544 0.20269,-0.08197c0.11773,-0.07451 0.23771,-0.15276 0.29062,-0.27571c0.04172,-0.05141 0.04248,-0.12445 0.06707,-0.18629c0.00298,-0.06557 0.01267,-0.15127 0.00671,-0.20269l-0.03874,-0.24814l-0.07303,-0.21311c-0.04397,-0.14158 -0.13265,-0.29061 -0.1997,-0.43592c-0.08792,-0.14009 -0.16691,-0.28614 -0.26305,-0.424c-0.3778,-0.55589 -0.83161,-1.08273 -1.31969,-1.59243c-0.97542,-1.02237 -2.07603,-1.99481 -3.23403,-2.95832c-2.3279,-1.91806 -4.91214,-3.78321 -7.63275,-5.63943c-2.80387,-1.89826 -5.66463,-3.71109 -8.57835,-5.43599c-3.00584,-1.78475 -6.06281,-3.48196 -9.16705,-5.08949c-3.11703,-1.62 -6.28176,-3.14982 -9.47405,-4.46876c-1.59614,-0.65649 -3.19975,-1.26231 -4.81378,-1.74891c-0.80626,-0.23994 -1.61701,-0.45307 -2.42776,-0.58867c-0.39889,-0.07151 -0.80277,-0.11163 -1.20792,-0.11997c-0.39196,-0.00522 -0.79957,0.0395 -1.07751,0.20865c-0.12678,0.07606 -0.21595,0.20172 -0.2459,0.34649c-0.01582,0.07552 -0.01784,0.15327 -0.00596,0.22951c0.01863,0.09538 0.02011,0.21609 0.0559,0.28763c0.03204,0.08197 0.04844,0.15947 0.08868,0.24591l0.12295,0.25932c0.09687,0.16841 0.19002,0.33905 0.30328,0.50075c0.44411,0.65053 0.97468,1.24591 1.51642,1.81522c1.0939,1.13265 2.26232,2.15354 3.42106,3.11703c2.32492,1.92253 4.64016,3.5999 6.80338,5.10589c3.49711,2.41545 7.07917,4.70556 10.73935,6.86597c1.02493,0.60699 2.05579,1.2039 3.09244,1.79063l1.09838,0.62594l-1.11253,-0.6006c-0.72579,-0.39122 -1.79213,-0.96424 -3.1297,-1.72879c-1.60985,-0.91508 -3.20568,-1.85459 -4.78695,-2.81821c-2.0542,-1.24679 -4.07672,-2.54504 -6.06565,-3.8935c-2.18334,-1.48661 -4.52093,-3.1446 -6.87863,-5.05372c-1.17587,-0.95754 -2.36218,-1.97171 -3.48738,-3.11331c-0.55888,-0.57378 -1.10583,-1.17736 -1.57752,-1.86516c-0.22951,-0.35769 -0.45231,-0.693 -0.58496,-1.16469c-0.04471,-0.11922 -0.04172,-0.20865 -0.06259,-0.31297c-0.01977,-0.12722 -0.0165,-0.25696 0.0097,-0.38301c0.04471,-0.25857 0.22803,-0.50373 0.44187,-0.63637c0.20443,-0.12121 0.4304,-0.20168 0.66543,-0.23697c0.21768,-0.03584 0.43816,-0.05181 0.65873,-0.0477c0.42926,0.0069 0.85731,0.04751 1.2802,0.12147c0.84204,0.13935 1.66694,0.35322 2.48662,0.59389c1.63937,0.48884 3.25563,1.09317 4.86369,1.74891c3.2154,1.31597 6.39801,2.83908 9.5292,4.4561c3.1076,1.62242 6.16755,3.33455 9.17598,5.1342c2.91608,1.73987 5.77884,3.5676 8.58432,5.4807c2.7288,1.86366 5.29813,3.77054 7.62082,5.72214c1.15649,0.98138 2.25488,1.97171 3.23477,3.01941c0.49032,0.52236 0.9486,1.0641 1.33757,1.64831c0.09836,0.14456 0.18182,0.30105 0.27273,0.45009c0.07377,0.16394 0.16095,0.30849 0.21609,0.48884c0.02906,0.08792 0.05961,0.17809 0.08346,0.26528l0.03577,0.24814c0.01192,0.11401 -0.00372,0.19598 -0.01118,0.29509c-0.03055,0.09314 -0.04172,0.19374 -0.10134,0.27571c-0.08868,0.1848 -0.25709,0.29807 -0.41356,0.39122c-0.08346,0.03353 -0.16691,0.07079 -0.25038,0.09836c-0.0842,0.02011 -0.16841,0.04322 -0.25335,0.05961c-0.33682,0.05887 -0.66543,0.05067 -0.98735,0.03577c-0.64233,-0.0462 -1.25486,-0.16245 -1.84428,-0.3003c-1.17811,-0.27868 -2.26531,-0.64159 -3.27724,-0.99852c-2.02163,-0.72654 -3.7385,-1.47245 -5.14538,-2.09988c-1.08668,-0.48933 -2.1646,-0.99786 -3.23328,-1.52536l-1.13265,-0.5626" fill="#55585b"/><path d="M248.65382,182.16482l1.51269,0.72058c0.98511,0.47168 2.43221,1.15874 4.29216,1.99183c1.85472,0.84129 4.11705,1.84205 6.7542,2.87559c1.32193,0.5082 2.72732,1.05292 4.23031,1.55218c1.50225,0.49777 3.10138,0.98511 4.78993,1.2884c0.83757,0.14158 1.72432,0.2556 2.53953,0.13636c0.39867,-0.06185 0.77125,-0.21163 0.88674,-0.45604c0.03426,-0.06496 0.05624,-0.1357 0.06484,-0.20865c0.00713,-0.04057 0.01013,-0.08177 0.00894,-0.12295v-0.03204c-0.00223,-0.04397 0.00522,0.02384 0.00149,0l-0.01267,-0.08644l-0.02609,-0.17363c-0.00396,-0.05375 -0.01628,-0.10654 -0.03651,-0.15649c-0.03265,-0.0871 -0.06297,-0.17506 -0.09091,-0.26379c-0.33979,-0.78839 -0.91954,-1.54845 -1.53504,-2.26978c-0.63907,-0.73623 -1.31558,-1.43911 -2.02685,-2.10584c-1.43668,-1.3726 -3.01793,-2.67887 -4.64835,-3.9926c-1.67411,-1.33212 -3.38184,-2.62143 -5.12153,-3.86667c-3.64751,-2.60842 -7.37982,-5.09614 -11.19092,-7.45912c-3.93871,-2.4363 -7.9482,-4.75627 -12.02326,-6.95688c-4.10661,-2.1908 -8.28104,-4.26012 -12.48601,-6.06417c-2.10138,-0.90389 -4.20647,-1.75338 -6.31752,-2.48886c-2.10807,-0.7243 -4.2251,-1.41433 -6.33466,-1.69302c-0.52311,-0.05961 -1.0492,-0.09464 -1.53803,-0.04172c-0.4851,0.05067 -0.93518,0.21833 -1.04324,0.50747c-0.03289,0.08181 -0.05057,0.16893 -0.05216,0.25709l-0.00298,0.07303c-0.00596,-0.0611 0.00298,0.01044 0.00298,0.01044l0.00746,0.04992l0.02757,0.19822c0.00596,0.03204 0.0082,0.06929 0.0164,0.09687l0.02757,0.07451l0.05067,0.14903c0.02235,0.09687 0.08718,0.21311 0.13636,0.32266c0.09314,0.22429 0.23846,0.43741 0.36141,0.65426c0.14233,0.21089 0.28316,0.42251 0.43667,0.62668c0.617,0.81745 1.31299,1.57826 2.03207,2.29735c0.71311,0.71224 1.44846,1.40186 2.20495,2.06783c2.98961,2.63939 6.03139,4.895 8.8578,6.93974c2.58233,1.85022 5.20957,3.63693 7.87939,5.35849c2.05802,1.33046 4.13323,2.6341 6.22513,3.91064c1.73997,1.06186 3.12374,1.87037 4.06637,2.4218c0.94636,0.54621 1.4501,0.83831 1.4501,0.83831l-1.4717,-0.79957c-0.95754,-0.52609 -2.36218,-1.29659 -4.13194,-2.31225c-1.76828,-1.01641 -3.91213,-2.25935 -6.32424,-3.7631c-2.70678,-1.67713 -5.37205,-3.42035 -7.9934,-5.22809c-1.50028,-1.03292 -2.97708,-2.09952 -4.42928,-3.199c-1.50524,-1.1416 -3.04252,-2.35026 -4.56266,-3.67143c-0.77397,-0.66713 -1.52697,-1.35823 -2.25785,-2.07231c-0.74144,-0.72654 -1.46276,-1.49629 -2.12373,-2.35175c-0.16394,-0.2146 -0.31818,-0.4404 -0.47392,-0.66618c-0.14158,-0.24069 -0.29807,-0.46648 -0.41431,-0.73324c-0.0611,-0.13115 -0.12966,-0.2474 -0.1766,-0.40985l-0.07451,-0.231l-0.03577,-0.11475c-0.00969,-0.03726 -0.01192,-0.06707 -0.01789,-0.1006l-0.02981,-0.19822l-0.0082,-0.04992c-0.00372,-0.03353 -0.00224,0.00596 -0.01044,-0.08942l0.0015,-0.12668c0.00353,-0.1805 0.04014,-0.35882 0.10805,-0.52609c0.14679,-0.35395 0.45754,-0.61774 0.75708,-0.74666c0.30254,-0.13786 0.60582,-0.19523 0.90016,-0.23026c0.58867,-0.06185 1.15501,-0.02011 1.71537,0.04397c1.11775,0.14009 2.20345,0.40313 3.2832,0.70492c1.07825,0.30552 2.14907,0.65203 3.21093,1.041c2.12447,0.77274 4.23255,1.65203 6.33094,2.59318c2.09913,0.93891 4.18411,1.94862 6.26462,2.98514c2.085,1.04097 4.15263,2.11639 6.20202,3.22582c4.09198,2.19215 8.12097,4.49986 12.08214,6.92037c3.92181,2.3905 7.71993,4.8503 11.29449,7.38088c3.56935,2.53357 6.95092,5.1029 9.8824,7.88536c0.7289,0.68523 1.42208,1.40752 2.07678,2.16397c0.63861,0.75932 1.2489,1.53504 1.658,2.48364c0.04546,0.13413 0.08942,0.26975 0.13041,0.40537c0.02534,0.07153 0.03353,0.12966 0.04098,0.18629l0.02533,0.17289l0.01267,0.08718c0.00445,0.02885 0.00669,0.058 0.00671,0.08718l-0.00074,0.05514c0.0015,0.07378 -0.00522,0.14903 -0.0164,0.22504c-0.02135,0.1577 -0.07056,0.31034 -0.1453,0.45083c-0.15499,0.29136 -0.41654,0.49927 -0.6699,0.61626c-0.2409,0.11097 -0.49712,0.18507 -0.76006,0.21983c-0.99406,0.12668 -1.90092,-0.02161 -2.77799,-0.17884c-1.74742,-0.34054 -3.35475,-0.85843 -4.86594,-1.38378c-1.42872,-0.50077 -2.84035,-1.04901 -4.23255,-1.64383c-2.25738,-0.96783 -4.48682,-1.99956 -6.68564,-3.09394c-1.41021,-0.71054 -2.811,-1.43963 -4.20199,-2.18707l-1.46798,-0.80776" fill="#55585b"/><path d="M221.66984,153.42969l-2.15427,-0.88674c-2.02628,-0.83454 -4.06375,-1.64162 -6.11185,-2.42104c-1.32491,-0.49554 -2.78841,-1.04846 -4.40095,-1.59243c-1.60956,-0.54621 -3.35847,-1.11775 -5.25194,-1.59987c-0.94487,-0.24218 -1.92551,-0.47094 -2.93819,-0.63339c-1.00523,-0.15499 -2.07157,-0.27348 -3.06115,-0.13413c-0.48436,0.06856 -0.95084,0.23846 -1.14905,0.51192c-0.10432,0.13189 -0.15499,0.29807 -0.16469,0.50597v0.07899c0,0.00224 0,0.05067 -0.00149,0.0149l0.00522,0.0544c0.00746,0.06707 0.01192,0.15276 0.0231,0.20641l0.03204,0.15349c0.01267,0.0544 0.03428,0.11773 0.05067,0.1766c0.1453,0.48436 0.41506,0.97767 0.71462,1.45531c0.31483,0.48916 0.65742,0.95988 1.02609,1.40985c1.50375,1.84354 3.33835,3.5783 5.2877,5.29963c1.95606,1.72059 4.06489,3.40466 6.26164,5.10067c4.39947,3.38603 9.21101,6.74302 14.28784,10.05976c5.22219,3.4083 10.54376,6.66187 15.95775,9.75647c5.52914,3.16323 11.23637,6.22513 17.05836,9.05079c2.90726,1.40944 5.85093,2.7425 8.828,3.99782c2.97173,1.24145 5.96879,2.3987 9.00683,3.32866c1.52014,0.45977 3.05071,0.86811 4.59544,1.12371c0.77125,0.12668 1.54845,0.21163 2.31599,0.1997c0.37794,-0.00216 0.75442,-0.04716 1.12222,-0.13413c0.35917,-0.08644 0.69375,-0.2459 0.92103,-0.49479c0.46349,-0.51417 0.27944,-1.34503 -0.01192,-2.01493c-0.29807,-0.69226 -0.72877,-1.33236 -1.17885,-1.94563c-0.91879,-1.22207 -1.96873,-2.33683 -3.04252,-3.40243c-2.16099,-2.12373 -4.44119,-4.05296 -6.72066,-5.87787c-2.23231,-1.77834 -4.50902,-3.50022 -6.82797,-5.16401c-4.51795,-3.25117 -8.90995,-6.15508 -13.01508,-8.75274c-6.61932,-4.1804 -13.38815,-8.11921 -20.29313,-11.80866c-1.93474,-1.03315 -3.88176,-2.04318 -5.84062,-3.02984l-2.08423,-1.03802l2.08945,1.02759c1.35993,0.67587 3.34878,1.67812 5.85701,3.00003c6.92538,3.65567 13.71583,7.56142 20.35796,11.70955c4.12077,2.57827 8.52993,5.46207 13.06949,8.69387c2.33087,1.65483 4.61975,3.36801 6.86447,5.13793c2.29288,1.81821 4.59023,3.73999 6.77505,5.86521c1.0857,1.06857 2.14981,2.18483 3.09244,3.42628c0.46424,0.62594 0.9106,1.27722 1.2325,2.01269c0.04248,0.09016 0.07749,0.18554 0.11178,0.28018c0.03801,0.0939 0.0693,0.19076 0.09613,0.28988c0.05961,0.18704 0.10209,0.424 0.11549,0.60582c0.04471,0.42251 -0.06409,0.89346 -0.36513,1.23399c-0.30254,0.33384 -0.71015,0.5164 -1.10731,0.61626c-0.39585,0.09617 -0.80133,0.14717 -1.20866,0.15202c-0.80479,0.0164 -1.60136,-0.06707 -2.38826,-0.193c-1.57454,-0.25261 -3.12077,-0.65724 -4.65431,-1.11253c-3.06487,-0.92177 -6.07832,-2.06783 -9.0657,-3.29811c-2.98663,-1.23474 -5.94345,-2.57083 -8.8727,-3.96279c-5.86224,-2.77575 -11.6097,-5.78995 -17.18132,-8.90624c-5.45697,-3.05026 -10.82277,-6.26084 -16.09039,-9.62755c-5.12079,-3.2847 -9.97257,-6.61858 -14.42643,-9.9912c-2.16868,-1.63606 -4.27763,-3.34981 -6.32274,-5.13793c-1.97469,-1.74667 -3.83462,-3.50154 -5.40544,-5.42928c-0.39349,-0.48099 -0.75921,-0.98406 -1.0954,-1.50673c-0.32713,-0.52758 -0.63487,-1.07453 -0.82787,-1.70643c-0.02235,-0.08122 -0.04694,-0.15649 -0.06707,-0.24218l-0.0529,-0.27273c-0.0149,-0.08868 -0.0164,-0.14903 -0.02533,-0.22355l-0.00447,-0.0544c-0.00746,-0.07153 -0.00372,-0.05961 -0.00448,-0.0924l0.00074,-0.1371c0.01192,-0.36365 0.12668,-0.77498 0.3763,-1.09093c0.24367,-0.32116 0.57154,-0.52236 0.88227,-0.65426c0.31521,-0.13265 0.62594,-0.20269 0.92923,-0.24814c0.60657,-0.08942 1.18482,-0.07451 1.74443,-0.03726c0.55962,0.04248 1.10136,0.11699 1.62968,0.20716c1.05665,0.1833 2.06039,0.42698 3.0224,0.69077c3.83463,1.09764 7.02916,2.4218 9.6365,3.54848c2.60585,1.1334 4.60141,2.13416 5.96432,2.80556c0.68108,0.33682 1.19674,0.61029 1.54473,0.79062l0.52758,0.27646" fill="#55585b"/><path d="M272.83449,149.25451l1.02087,3.22583l2.90094,0.31148l-2.22656,1.76604l0.41729,2.43446l-2.18334,-1.14905l-2.6364,1.76306l0.8711,-3.04773l-2.08423,-1.66843l2.75787,-0.40985z" fill="#f6af3f"/><path d="M248.07259,153.62939l1.16917,2.17589l1.80032,-0.19747l-1.1401,1.33087l1.1401,1.59913l-2.01269,-0.61998l-1.25785,1.18035l0.05737,-1.70867l-1.5641,-0.86291l1.696,-0.44263z" fill="#ed6506"/><path d="M246.94143,177.25119l0.06259,2.46949l1.696,0.63711l-1.61701,0.67288l0.29658,1.9419l-1.51716,-1.46276l-1.65426,0.4851l0.82192,-1.49853l-1.00746,-1.47693l1.71314,0.37109z" fill="#f6af3f"/><path d="M214.12428,179.50158l1.16917,2.17589l1.80032,-0.19747l-1.1401,1.33087l1.1401,1.59913l-2.01269,-0.61998l-1.25785,1.18034l0.05738,-1.70867l-1.5641,-0.8629l1.696,-0.44263z" fill="#fff101"/><path d="M279.5097,152.14874c0.00041,0.40537 -0.32788,0.73432 -0.73325,0.73473c-0.40537,0.00041 -0.73432,-0.32788 -0.73473,-0.73324c-0.00041,-0.40537 0.32788,-0.73432 0.73325,-0.73473c0.40537,-0.00041 0.73432,0.32788 0.73473,0.73324M280.46276,149.73068c0.00022,0.26339 -0.21314,0.47708 -0.47654,0.47728c-0.26339,0.00022 -0.47708,-0.21314 -0.47728,-0.47654c0,-0.26339 0.21352,-0.47691 0.47691,-0.47691c0.26339,0 0.47691,0.21353 0.47691,0.47691" fill="#f6af3f"/><path d="M219.27189,148.31561c0.01177,0.5129 -0.25511,0.99195 -0.69744,1.25186c-0.44233,0.25991 -0.99071,0.25991 -1.43303,0c-0.44233,-0.25991 -0.70921,-0.73896 -0.69745,-1.25186c-0.01675,-0.51596 0.24895,-1.00008 0.69321,-1.26303c0.44426,-0.26294 0.99649,-0.26294 1.44075,0c0.44426,0.26294 0.70996,0.74705 0.6932,1.26303M220.47608,150.81117c0.01107,0.22253 -0.10135,0.43305 -0.29242,0.54764c-0.19108,0.11459 -0.42974,0.11459 -0.62081,0c-0.19108,-0.11459 -0.30349,-0.32511 -0.29242,-0.54764c0.01599,-0.3213 0.28115,-0.57361 0.60285,-0.57361c0.3217,0 0.58686,0.25231 0.60285,0.57361" fill="#ed6506"/><path d="M227.96203,166.29499c0.00876,0.27332 -0.13202,0.52972 -0.3673,0.66905c-0.2353,0.13932 -0.52779,0.13946 -0.76325,0.00038c-0.23544,-0.1391 -0.37646,-0.39536 -0.36797,-0.66868c0.01256,-0.40461 0.34409,-0.72618 0.74891,-0.72639c0.40482,-0.0002 0.73667,0.32103 0.74962,0.72563M225.46572,165.16681c0,0.30372 -0.24622,0.54993 -0.54993,0.54993c-0.30372,0 -0.54993,-0.24622 -0.54993,-0.54993c0,-0.30372 0.24622,-0.54993 0.54993,-0.54993c0.30372,0 0.54993,0.24622 0.54993,0.54993" fill="#f6af3f"/><path d="M268.91416,152.89019c0.22206,-0.08346 0.4471,-0.15275 0.67214,-0.21759c0.22579,-0.06259 0.45158,-0.12369 0.67885,-0.17511c0.45455,-0.10805 0.9106,-0.19523 1.36962,-0.27198l-0.20417,0.16691c0.1848,-0.54099 0.39494,-1.07305 0.62073,-1.59838c0.231,-0.52385 0.47691,-1.04324 0.78392,-1.53952c-0.08197,0.5775 -0.22355,1.13488 -0.37854,1.68557c-0.15992,0.54914 -0.34063,1.09202 -0.54173,1.62744l-0.00372,0.0082c-0.0325,0.08621 -0.10984,0.14751 -0.2012,0.15947c-0.46051,0.05961 -0.92401,0.10879 -1.38899,0.13786c-0.23321,0.01554 -0.46676,0.02548 -0.70046,0.0298c-0.23473,0.00298 -0.46946,0.00298 -0.70642,-0.01267" fill="#55585b"/><path d="M270.1273,157.60634c0.01341,-0.27124 0.05067,-0.53503 0.08868,-0.79882c0.04024,-0.26304 0.08941,-0.52385 0.14233,-0.78317c0.10817,-0.51759 0.2387,-1.03024 0.39122,-1.53653l0.08718,0.27273c-0.34278,-0.2839 -0.6796,-0.57528 -1.00076,-0.88526c-0.16285,-0.15378 -0.32114,-0.31232 -0.47467,-0.47542c-0.15425,-0.16394 -0.30552,-0.3301 -0.4471,-0.50969c0.20567,0.09836 0.4009,0.21089 0.59465,0.32489c0.19151,0.11625 0.38376,0.23249 0.56782,0.35917c0.37258,0.2459 0.73027,0.51044 1.08198,0.78243c0.08085,0.06244 0.11615,0.16743 0.08942,0.26603l-0.00224,0.00746c-0.13892,0.51009 -0.29877,1.01425 -0.47914,1.5112c-0.09091,0.24814 -0.18704,0.49554 -0.2921,0.74069c-0.10417,0.24682 -0.22007,0.48852 -0.34725,0.7243" fill="#55585b"/><path d="M274.94629,156.99233c-0.20206,-0.05339 -0.40171,-0.11554 -0.59836,-0.1863c-0.19521,-0.06908 -0.38852,-0.14337 -0.57973,-0.2228c-0.19002,-0.07973 -0.38078,-0.15872 -0.56633,-0.2474c-0.18756,-0.08466 -0.3734,-0.1731 -0.55739,-0.26528l0.26155,-0.01416c-0.21759,0.15052 -0.43667,0.29807 -0.66022,0.43965c-0.22131,0.14382 -0.45232,0.27422 -0.67885,0.40985c-0.46275,0.25932 -0.93146,0.50895 -1.43966,0.70046c0.37184,-0.39568 0.78168,-0.73399 1.19748,-1.06336c0.21237,-0.15723 0.42103,-0.32042 0.63861,-0.47094c0.2161,-0.15202 0.43592,-0.29807 0.65798,-0.44188l0.00746,-0.00522c0.07672,-0.04912 0.17412,-0.05255 0.2541,-0.00894c0.18033,0.0991 0.35769,0.20269 0.53428,0.30925c0.17884,0.10209 0.35172,0.21535 0.5246,0.32712c0.17363,0.11178 0.34427,0.22951 0.51192,0.35172c0.16767,0.12221 0.33384,0.24963 0.49255,0.38748" fill="#55585b"/><path d="M276.7563,152.79183c-0.14754,0.19523 -0.31073,0.37035 -0.47392,0.54621c-0.16469,0.17289 -0.33532,0.34054 -0.50895,0.50224c-0.17363,0.1617 -0.35247,0.31818 -0.5313,0.47392c-0.18108,0.15275 -0.36513,0.30254 -0.55143,0.4471l0.0939,-0.2459c0.06334,0.40611 0.11549,0.81446 0.1453,1.22729c0.01789,0.20567 0.02384,0.41282 0.03055,0.62073c0.00298,0.20865 0.00298,0.41729 -0.01416,0.62892c-0.08331,-0.1926 -0.15741,-0.38905 -0.22206,-0.58867c-0.06334,-0.19747 -0.12669,-0.39494 -0.17735,-0.59539c-0.10755,-0.39789 -0.1983,-0.80014 -0.27198,-1.20568c-0.0167,-0.09048 0.01696,-0.18289 0.08792,-0.24144l0.00671,-0.00522c0.36757,-0.29934 0.74876,-0.58157 1.14234,-0.84577c0.19747,-0.13265 0.39867,-0.26007 0.60433,-0.38153c0.20865,-0.11922 0.41655,-0.23846 0.6401,-0.33682" fill="#55585b"/><path d="M272.83449,149.25451c0.14456,0.24963 0.26304,0.50821 0.38302,0.76529c0.11625,0.25932 0.22579,0.52012 0.32788,0.78317c0.20596,0.52529 0.39116,1.0585 0.55515,1.59838l-0.21759,-0.17884c0.48353,0.05684 0.96496,0.13041 1.44339,0.22057c0.23994,0.04172 0.47839,0.09687 0.7176,0.15127c0.23846,0.05812 0.47616,0.11922 0.71238,0.19747c-0.2474,0.02609 -0.4933,0.03428 -0.73772,0.04098c-0.24516,0.00298 -0.49032,0.00596 -0.73324,-0.00372c-0.48677,-0.01332 -0.97293,-0.0439 -1.45755,-0.09166c-0.10021,-0.00944 -0.18531,-0.07729 -0.21685,-0.17289l-0.0015,-0.00671c-0.17607,-0.53605 -0.33143,-1.07869 -0.46573,-1.62669c-0.06707,-0.27497 -0.12743,-0.55142 -0.18108,-0.83011c-0.05067,-0.27944 -0.10134,-0.55888 -0.12742,-0.84651M246.26482,156.5266c0.25632,-0.15364 0.52443,-0.2867 0.8018,-0.39792c0.13786,-0.05067 0.27348,-0.11103 0.41282,-0.15425c0.1386,-0.04546 0.27646,-0.09687 0.41729,-0.13636l-0.18928,0.23398c0.00372,-0.40985 0.03428,-0.81819 0.08792,-1.2258c0.06035,-0.40686 0.13189,-0.81372 0.2772,-1.21686c0.10805,0.4143 0.14158,0.82639 0.16543,1.23698c0.01565,0.41059 0.00969,0.82043 -0.02459,1.22953l-0.00074,0.01341c-0.00881,0.10603 -0.08443,0.19454 -0.18778,0.21982c-0.14233,0.03428 -0.28688,0.05737 -0.4307,0.0857c-0.14308,0.0298 -0.29061,0.04397 -0.43517,0.06707c-0.2936,0.03279 -0.58867,0.05887 -0.8942,0.04471" fill="#55585b"/><path d="M247.77154,159.09817c-0.08766,-0.28025 -0.14537,-0.569 -0.17213,-0.86142c-0.02807,-0.28448 -0.03804,-0.57046 -0.0298,-0.8562l0.13413,0.23622c-0.26272,-0.1415 -0.51543,-0.30084 -0.75635,-0.47691c-0.12221,-0.08718 -0.23846,-0.18629 -0.35395,-0.28316c-0.11252,-0.10432 -0.22653,-0.20567 -0.32788,-0.3301c0.15872,0.02011 0.30552,0.06185 0.45307,0.10209c0.14456,0.04546 0.28911,0.09166 0.42847,0.14829c0.27944,0.10954 0.54769,0.2392 0.80776,0.38526l0.00298,0.00149c0.08718,0.04844 0.13413,0.14158 0.13115,0.23473c-0.0111,0.2857 -0.04021,0.57044 -0.08718,0.85247c-0.05216,0.28316 -0.11475,0.56632 -0.231,0.84726M251.04209,158.53781c-0.1817,0.00449 -0.36348,-0.00398 -0.54397,-0.02533c-0.17614,-0.01902 -0.35141,-0.04538 -0.52534,-0.07899c-0.34649,-0.06707 -0.68555,-0.15947 -1.01938,-0.26901l0.25187,-0.05887c-0.2146,0.19226 -0.43667,0.37482 -0.67363,0.54248c-0.23917,0.17278 -0.49358,0.32343 -0.76007,0.45009c0.14158,-0.26827 0.31745,-0.50224 0.49703,-0.73027c0.18256,-0.22579 0.37928,-0.43667 0.58421,-0.63787c0.06337,-0.06275 0.15569,-0.0864 0.24144,-0.06185l0.01044,0.00298c0.33756,0.09687 0.66916,0.21163 0.99406,0.35097c0.16245,0.06781 0.32116,0.14903 0.47988,0.231c0.15649,0.0857 0.31371,0.17289 0.46349,0.28466" fill="#55585b"/><path d="M251.04209,155.60781c-0.11178,0.28838 -0.26379,0.54397 -0.42028,0.79361c-0.16059,0.24533 -0.3355,0.48096 -0.52385,0.70567l0.0149,-0.31892c0.19225,0.26454 0.37258,0.53801 0.53055,0.82713c0.08122,0.14382 0.15201,0.29434 0.22131,0.44561c0.06558,0.15425 0.13189,0.30775 0.17735,0.47691c-0.1453,-0.09761 -0.26827,-0.21089 -0.39345,-0.32266c-0.12111,-0.11309 -0.23747,-0.23117 -0.34873,-0.35395c-0.21955,-0.2438 -0.4229,-0.50167 -0.6088,-0.77199l-0.00298,-0.00522c-0.06708,-0.09608 -0.06002,-0.22553 0.01714,-0.31372c0.19374,-0.21908 0.39792,-0.42922 0.617,-0.62594c0.22281,-0.19374 0.45157,-0.38153 0.71984,-0.53652" fill="#55585b"/><path d="M248.07259,153.62939c0.30552,0.30328 0.54622,0.64085 0.77796,0.98362c0.22354,0.34649 0.43368,0.70195 0.61476,1.0708l-0.25187,-0.1319c0.15052,-0.01341 0.30179,-0.01789 0.45307,-0.02459c0.15128,-0.00894 0.30328,-0.00372 0.45455,-0.00448c0.30552,0.00894 0.61104,0.02533 0.92103,0.08495c-0.28523,0.11757 -0.57954,0.21178 -0.88004,0.28168c-0.14903,0.03279 -0.29658,0.07079 -0.44561,0.09464c-0.14903,0.02609 -0.29807,0.05514 -0.4471,0.07451c-0.09841,0.01298 -0.19503,-0.03428 -0.24516,-0.11997l-0.00746,-0.01267c-0.20716,-0.35619 -0.38748,-0.72654 -0.55366,-1.10434c-0.15723,-0.38302 -0.30552,-0.7705 -0.39047,-1.19226M244.20816,181.99491c0.04814,-0.28966 0.12681,-0.57342 0.23473,-0.84651c0.10358,-0.26827 0.22429,-0.52609 0.35991,-0.77722l0.01341,0.27124c-0.17091,-0.24499 -0.32477,-0.50143 -0.46051,-0.76752c-0.0681,-0.13515 -0.13099,-0.27287 -0.18853,-0.41283c-0.05365,-0.14382 -0.10954,-0.28614 -0.14456,-0.44263c0.13338,0.08941 0.24516,0.19374 0.35917,0.29584c0.10805,0.10656 0.21685,0.21237 0.31595,0.32638c0.19896,0.22355 0.38004,0.46051 0.54621,0.70791l0.00223,0.00298c0.054,0.08016 0.05833,0.18389 0.01118,0.26827c-0.13854,0.25023 -0.29286,0.49141 -0.46201,0.72207c-0.17437,0.22877 -0.35769,0.45307 -0.58719,0.65203" fill="#55585b"/><path d="M247.37959,182.97258c-0.16413,-0.07779 -0.32252,-0.16718 -0.47392,-0.26751c-0.14885,-0.09667 -0.29354,-0.1996 -0.43368,-0.30849c-0.27689,-0.21712 -0.54018,-0.45105 -0.78839,-0.70046l0.25112,0.0611c-0.2772,0.07451 -0.55888,0.1371 -0.84577,0.17959c-0.2912,0.04627 -0.58603,0.06573 -0.88079,0.05812c0.2441,-0.1659 0.50304,-0.30883 0.77348,-0.42698c0.26454,-0.11922 0.53428,-0.21833 0.8085,-0.30552c0.08486,-0.02689 0.17764,-0.00612 0.24292,0.0544l0.00746,0.00746c0.25783,0.23846 0.50224,0.49181 0.72951,0.7623c0.11475,0.13413 0.21983,0.27795 0.32415,0.42251c0.10134,0.14829 0.20194,0.29658 0.2854,0.46349" fill="#55585b"/><path d="M248.70002,180.35853c-0.231,0.20641 -0.48064,0.36588 -0.73325,0.51789c-0.25378,0.1466 -0.51604,0.27797 -0.78541,0.39345l0.15649,-0.27795c0.05291,0.32266 0.09091,0.64829 0.10134,0.97767c0.00608,0.16588 0.00508,0.33197 -0.00298,0.49777c-0.01118,0.16691 -0.02161,0.33458 -0.05663,0.50523c-0.08495,-0.15275 -0.1453,-0.30924 -0.20567,-0.46498c-0.05697,-0.15582 -0.10743,-0.31392 -0.15127,-0.47392c-0.08868,-0.31818 -0.14903,-0.63935 -0.19598,-0.96425v-0.00596c-0.01674,-0.11589 0.04789,-0.2282 0.15649,-0.27198c0.27165,-0.10959 0.5496,-0.2029 0.83235,-0.27944c0.28915,-0.07991 0.58538,-0.13157 0.88451,-0.15425M246.94143,177.25119c0.13562,0.4076 0.19822,0.81819 0.25187,1.22953c0.04322,0.40985 0.06929,0.82117 0.06557,1.23325l-0.16543,-0.23174c0.14009,0.05589 0.2772,0.11997 0.41506,0.1833c0.1386,0.05961 0.27273,0.13265 0.40835,0.2012c0.26827,0.1453 0.53279,0.29807 0.78243,0.49107c-0.30751,-0.02376 -0.61254,-0.0726 -0.91208,-0.14605c-0.14679,-0.03726 -0.29584,-0.07079 -0.43965,-0.11699c-0.14456,-0.04322 -0.29061,-0.08495 -0.43294,-0.13562c-0.0935,-0.03286 -0.15814,-0.11865 -0.16394,-0.21759l-0.00074,-0.0149c-0.02264,-0.41154 -0.02164,-0.82405 0.00298,-1.23549c0.03204,-0.41283 0.07451,-0.82565 0.18853,-1.2407" fill="#55585b"/><path d="M244.02261,179.01947c0.29803,-0.02139 0.5973,-0.0189 0.89494,0.00746c0.14605,0.0164 0.2936,0.02459 0.43741,0.04844c0.1453,0.02235 0.29061,0.03875 0.43443,0.06707l-0.27422,0.12369c0.18778,-0.36513 0.39867,-0.71536 0.63041,-1.05442c0.23771,-0.33608 0.48436,-0.66692 0.79584,-0.96126c-0.08942,0.41953 -0.2459,0.8018 -0.40985,1.17885c-0.16917,0.37342 -0.36129,0.73603 -0.57528,1.0857l-0.00746,0.01267c-0.05572,0.09059 -0.16335,0.13508 -0.26677,0.11029c-0.14158,-0.03279 -0.28168,-0.07824 -0.42251,-0.11773c-0.14158,-0.03726 -0.27944,-0.09166 -0.41878,-0.1371c-0.28205,-0.09907 -0.55567,-0.22067 -0.81819,-0.36365M212.31651,182.3988c0.25632,-0.15364 0.52443,-0.2867 0.8018,-0.39792c0.13786,-0.05067 0.27348,-0.11103 0.41283,-0.15425c0.1386,-0.04546 0.27646,-0.09687 0.41729,-0.13636l-0.18928,0.23398c0.00372,-0.40985 0.03428,-0.81819 0.08792,-1.2258c0.06035,-0.40686 0.1319,-0.81372 0.27721,-1.21686c0.10805,0.4143 0.14158,0.82639 0.16542,1.23698c0.0164,0.41059 0.0097,0.81968 -0.02459,1.22879l-0.00074,0.0149c-0.00912,0.10574 -0.08467,0.19389 -0.18778,0.21908c-0.14233,0.03428 -0.28688,0.05737 -0.4307,0.08495c-0.14308,0.03055 -0.29062,0.04471 -0.43517,0.06707c-0.2936,0.03353 -0.58867,0.05962 -0.8942,0.04546" fill="#55585b"/><path d="M213.82323,184.97037c-0.08766,-0.28025 -0.14537,-0.569 -0.17213,-0.86142c-0.02807,-0.28448 -0.03804,-0.57046 -0.02981,-0.8562l0.13413,0.23622c-0.26272,-0.1415 -0.51543,-0.30084 -0.75634,-0.4769c-0.12147,-0.08792 -0.23846,-0.18629 -0.35395,-0.28316c-0.11252,-0.10432 -0.22653,-0.20567 -0.32788,-0.3301c0.15872,0.02011 0.30552,0.06185 0.45307,0.10209c0.14456,0.04546 0.28912,0.09091 0.42847,0.14829c0.27944,0.10954 0.5477,0.2392 0.80776,0.38525l0.00298,0.00149c0.08644,0.04844 0.13413,0.14158 0.13115,0.23473c-0.01112,0.28546 -0.04023,0.56993 -0.08718,0.85173c-0.05216,0.28316 -0.11475,0.56632 -0.231,0.848" fill="#55585b"/><path d="M217.09377,184.41c-0.18629,0.0082 -0.36513,-0.00746 -0.54397,-0.02533c-0.17639,-0.019 -0.35191,-0.04535 -0.52609,-0.07899c-0.34649,-0.06707 -0.68555,-0.15947 -1.01864,-0.26901l0.25187,-0.05887c-0.2146,0.19226 -0.43667,0.37482 -0.67363,0.54248c-0.23896,0.17311 -0.49339,0.32378 -0.76006,0.45009c0.1428,-0.25823 0.30918,-0.5027 0.49703,-0.73027c0.18256,-0.22579 0.37929,-0.43667 0.58422,-0.63786c0.06337,-0.06275 0.15569,-0.0864 0.24144,-0.06185l0.01044,0.00298c0.33756,0.09687 0.66991,0.21163 0.99406,0.35097c0.16319,0.06707 0.32116,0.14903 0.47988,0.231c0.15649,0.0857 0.31371,0.17289 0.46349,0.28466" fill="#55585b"/><path d="M217.09377,181.48001c-0.11444,0.27748 -0.25544,0.54325 -0.42103,0.79361c-0.16027,0.24536 -0.33493,0.48099 -0.52311,0.70567l0.01416,-0.31893c0.19374,0.26454 0.37258,0.53801 0.5313,0.82713c0.08122,0.14382 0.15127,0.29434 0.22131,0.44561c0.06557,0.15425 0.1319,0.30775 0.17735,0.47691c-0.14456,-0.09761 -0.26827,-0.21089 -0.39346,-0.32266c-0.12086,-0.1131 -0.23697,-0.23119 -0.34799,-0.35395c-0.21961,-0.24372 -0.42298,-0.50161 -0.6088,-0.772l-0.00447,-0.00522c-0.06717,-0.09616 -0.05977,-0.2258 0.01789,-0.31371c0.19374,-0.21908 0.39717,-0.42922 0.617,-0.62594c0.22202,-0.20171 0.46309,-0.3814 0.71984,-0.53652" fill="#55585b"/><path d="M214.12428,179.50158c0.30552,0.30328 0.54621,0.64085 0.77795,0.98362c0.22355,0.34649 0.43368,0.70195 0.61477,1.0708l-0.25187,-0.1319c0.15052,-0.01416 0.30179,-0.01789 0.45307,-0.02459c0.15127,-0.00894 0.30328,-0.00372 0.45455,-0.00447c0.30552,0.00894 0.61104,0.02533 0.92103,0.08495c-0.28523,0.11757 -0.57955,0.21177 -0.88004,0.28167c-0.14903,0.03279 -0.29658,0.07079 -0.44561,0.0939c-0.14903,0.02683 -0.29807,0.05514 -0.4471,0.07451c-0.09804,0.01302 -0.19433,-0.03396 -0.24441,-0.11922l-0.00746,-0.01267c-0.20865,-0.35619 -0.38823,-0.72654 -0.55441,-1.10434c-0.15723,-0.38302 -0.30552,-0.7705 -0.39047,-1.19226M279.5097,152.14874l-0.00298,-0.05216c-0.01509,-0.22267 -0.15096,-0.41917 -0.35395,-0.51192c-0.09404,-0.0434 -0.19804,-0.06065 -0.30105,-0.04992c-0.10753,0.00908 -0.21044,0.04777 -0.29732,0.11178c-0.11868,0.08968 -0.20226,0.21806 -0.23622,0.36289c-0.00298,0.02384 -0.00969,0.0477 -0.01044,0.06185c-0.00372,0.00224 -0.00372,0.07153 -0.00522,0.07749c-0.0002,0.25248 0.15148,0.4803 0.38451,0.57749c0.01714,0.01118 0.05514,0.01789 0.08495,0.02459c0.12761,0.03021 0.26166,0.01683 0.38078,-0.03801c0.203,-0.09313 0.33881,-0.28985 0.35395,-0.51268l0.00298,-0.05216M279.5097,152.148c0,0 0.00596,0.07378 -0.02235,0.19747c-0.04125,0.17757 -0.13622,0.33811 -0.27198,0.45977c-0.09933,0.08631 -0.21632,0.14989 -0.34278,0.18629c-0.03726,0.00894 -0.06708,0.01714 -0.11327,0.02235c-0.03353,0.00372 -0.05961,0.01044 -0.10655,0.0082c-0.23159,0.0006 -0.45382,-0.09144 -0.61716,-0.25562c-0.16335,-0.16418 -0.25424,-0.38688 -0.25245,-0.61846c0.00372,-0.06557 0.00224,-0.06855 0.01192,-0.1371c0.02297,-0.14575 0.0813,-0.28365 0.1699,-0.40165c0.21015,-0.27615 0.56691,-0.39705 0.90166,-0.30552c0.15052,0.04172 0.25857,0.11029 0.34873,0.18778c0.17437,0.15947 0.24441,0.33756 0.27198,0.45977c0.02831,0.12445 0.02235,0.19747 0.02235,0.19747M280.46276,149.73068c0,0 0.00223,-0.0477 -0.02235,-0.12593c-0.03538,-0.10464 -0.11704,-0.18712 -0.22131,-0.22354c-0.05978,-0.02183 -0.12483,-0.0247 -0.18629,-0.0082c-0.06305,0.01269 -0.12044,0.04504 -0.16394,0.0924c-0.0511,0.05591 -0.08386,0.12612 -0.09389,0.2012c-0.00223,0.03055 -0.00372,0.01192 -0.00522,0.07749c0,0.01714 0.00596,0.07749 0.01937,0.11773c0.02457,0.07905 0.07596,0.14705 0.1453,0.19226c0.00596,0.00894 0.03278,0.0149 0.05216,0.02235c0.00522,0.00522 0.02683,0.01044 0.04098,0.0149c0.06372,0.01548 0.13058,0.01185 0.19225,-0.01044c0.10381,-0.03692 0.18505,-0.11925 0.22057,-0.22355c0.02459,-0.07824 0.02235,-0.12669 0.02235,-0.12669M280.46276,149.73068c0,0 0.00298,0.04694 -0.01416,0.12891c-0.02462,0.11855 -0.08253,0.22763 -0.16691,0.31446c-0.06508,0.06377 -0.1431,0.11281 -0.22877,0.14382c-0.02608,0.00746 -0.04471,0.0149 -0.08048,0.02087c-0.02235,0.00447 -0.03727,0.01118 -0.07303,0.01118c-0.19582,0.01185 -0.38541,-0.07103 -0.50969,-0.22281c-0.18586,-0.23161 -0.18586,-0.56125 0,-0.79286c0.08357,-0.1035 0.19872,-0.17678 0.32788,-0.20865c0.2033,-0.04582 0.41594,0.01513 0.56409,0.1617c0.08435,0.08716 0.14223,0.19646 0.16691,0.31521c0.01714,0.08197 0.01416,0.12816 0.01416,0.12816M219.27189,148.31561l-0.00671,-0.09985c-0.00621,-0.09379 -0.0232,-0.18656 -0.05067,-0.27646c-0.04055,-0.13956 -0.10566,-0.27078 -0.19226,-0.38748c-0.10862,-0.15057 -0.24872,-0.27567 -0.41059,-0.36662c-0.38975,-0.21653 -0.86421,-0.21427 -1.25187,0.00596c-0.19846,0.11405 -0.36425,0.27726 -0.48138,0.47392c-0.05468,0.09928 -0.09841,0.20423 -0.13041,0.31297c-0.01118,0.05664 -0.02683,0.11252 -0.0313,0.16022c-0.01044,0.03428 -0.00969,0.13786 -0.01341,0.17735c0,0.22877 0.06334,0.45083 0.17437,0.65053c0.11699,0.19523 0.28316,0.36289 0.48138,0.47467c0.09836,0.05216 0.20865,0.10209 0.30999,0.12593c0.04694,0.0164 0.11475,0.02235 0.17437,0.03204c0.04546,0.00596 0.10805,0.00746 0.16096,0.00894c0.22131,-0.00224 0.4322,-0.06409 0.6073,-0.1617c0.2913,-0.16349 0.50751,-0.43396 0.60285,-0.75411c0.03577,-0.11625 0.0462,-0.21237 0.05067,-0.27721l0.00596,-0.0991M219.27114,148.31561l-0.00372,0.0991c-0.04733,0.77455 -0.66245,1.39349 -1.43668,1.44563c-0.06334,0.00224 -0.11922,0.0097 -0.19598,0.00224c-0.14502,-0.00761 -0.28812,-0.03649 -0.42474,-0.0857c-0.2922,-0.10487 -0.54596,-0.29549 -0.72804,-0.54695c-0.19287,-0.26593 -0.29714,-0.58582 -0.29807,-0.91431c0.00596,-0.09985 0.00298,-0.13636 0.02011,-0.23846c0.03523,-0.24504 0.13017,-0.47766 0.27646,-0.67736c0.09687,-0.12668 0.20567,-0.24218 0.32936,-0.33532c0.12668,-0.08941 0.26081,-0.16393 0.40016,-0.21237c0.497,-0.1745 1.04863,-0.08439 1.46425,0.2392c0.34986,0.27238 0.56588,0.68191 0.59315,1.12446l0.00372,0.09985M220.47608,150.81117l-0.00298,-0.04248c-0.0122,-0.18245 -0.12686,-0.34218 -0.29584,-0.41208c-0.07654,-0.03265 -0.16075,-0.04299 -0.24292,-0.02981c-0.08486,0.01128 -0.16461,0.04701 -0.22951,0.10284c-0.08424,0.0726 -0.14193,0.17117 -0.16394,0.28018l-0.00596,0.04322c-0.00298,-0.00447 -0.00372,0.05812 -0.00372,0.05812c-0.00143,0.18873 0.10385,0.36209 0.27198,0.44785c0.01192,0.00969 0.04471,0.0164 0.06856,0.02384c0.01044,0.00522 0.03875,0.00969 0.05737,0.01341c0.08388,0.01321 0.16978,0.00289 0.24814,-0.0298c0.16897,-0.07031 0.28356,-0.23022 0.29584,-0.41283l0.00298,-0.04247M220.47608,150.81117c0,0 0.00447,0.05961 -0.01789,0.1617c-0.02235,0.10134 -0.07675,0.24814 -0.21833,0.38599c-0.07228,0.06632 -0.16767,0.12669 -0.28466,0.16394c-0.03204,0.00894 -0.05589,0.01714 -0.09687,0.02235c-0.02757,0.00372 -0.04844,0.01044 -0.08941,0.0097c-0.07211,0.00259 -0.14422,-0.0057 -0.21387,-0.02459c-0.15097,-0.04198 -0.28479,-0.13066 -0.38227,-0.25335c-0.10318,-0.13344 -0.15973,-0.29705 -0.16095,-0.46573c0.00298,-0.05961 0.00149,-0.05589 0.01044,-0.11922c0.00589,-0.04412 0.01611,-0.08755 0.03055,-0.12966c0.07826,-0.23089 0.26626,-0.40771 0.50149,-0.47168c0.12957,-0.03524 0.26649,-0.03317 0.39494,0.00596c0.25746,0.07776 0.45238,0.28923 0.50895,0.55217c0.02235,0.10284 0.01789,0.16245 0.01789,0.16245M227.96203,166.29499l-0.00298,-0.0529c-0.01547,-0.2274 -0.15376,-0.42824 -0.36066,-0.52385c-0.09597,-0.04494 -0.20228,-0.06323 -0.30775,-0.0529c-0.11043,0.00899 -0.2162,0.04845 -0.30552,0.11401c-0.12279,0.09154 -0.20934,0.22349 -0.24441,0.37258c-0.00372,0.02384 -0.01044,0.04844 -0.01118,0.06334c-0.00447,0.00298 -0.00447,0.07303 -0.00522,0.07973c-0.00079,0.26016 0.15632,0.49479 0.39717,0.59315c0.01789,0.01118 0.05664,0.01714 0.08718,0.02459c0.13087,0.02984 0.26793,0.01542 0.38972,-0.04098c0.20669,-0.09586 0.34487,-0.29656 0.36066,-0.52385l0.00298,-0.0529M227.96203,166.29499c0,0 0.00596,0.07452 -0.0231,0.2012c-0.04248,0.18118 -0.1398,0.34486 -0.27869,0.46871c-0.10145,0.08742 -0.2207,0.15176 -0.34949,0.18852c-0.03726,0.00894 -0.06707,0.01714 -0.11475,0.02235c-0.03428,0.00372 -0.06185,0.01044 -0.10879,0.0082c-0.23516,-0.00019 -0.46056,-0.0941 -0.62629,-0.26095c-0.16573,-0.16685 -0.25812,-0.39287 -0.25674,-0.62803c0.00372,-0.06707 0.00223,-0.07079 0.01267,-0.14009c0.0071,-0.05144 0.01908,-0.10209 0.03577,-0.15127c0.09082,-0.27143 0.30786,-0.48179 0.58198,-0.56409c0.15371,-0.04544 0.31702,-0.04725 0.47168,-0.00522c0.15202,0.04248 0.26229,0.11178 0.3547,0.19002c0.17735,0.16245 0.24964,0.34427 0.27795,0.46946c0.02907,0.12668 0.0231,0.2012 0.0231,0.2012M225.46572,165.16681c0,0 0.00298,-0.05589 -0.02534,-0.1453c-0.03977,-0.12132 -0.13156,-0.21857 -0.25037,-0.26528c-0.06966,-0.02829 -0.14608,-0.03554 -0.21983,-0.02087c-0.0753,0.01223 -0.1453,0.04645 -0.2012,0.09836c-0.07031,0.06579 -0.11737,0.15259 -0.13413,0.2474l-0.00522,0.03503c-0.00224,-0.00671 -0.00224,0.05365 -0.00298,0.05067c-0.00155,0.16295 0.0851,0.31401 0.22653,0.39494c0.00969,0.00969 0.0395,0.0164 0.0611,0.0231c0.00894,0.00596 0.03428,0.01044 0.05067,0.0149c0.07601,0.0149 0.15649,0.00522 0.22504,-0.02235c0.11875,-0.0468 0.21051,-0.14402 0.25037,-0.26528c0.02831,-0.08941 0.02534,-0.1453 0.02534,-0.1453M225.46572,165.16681c0,0 0.00372,0.0544 -0.0164,0.14754c-0.02939,0.1354 -0.09777,0.25922 -0.19672,0.35619c-0.07494,0.07033 -0.16415,0.12369 -0.26155,0.15649c-0.02907,0.00746 -0.05067,0.0149 -0.08941,0.02087c-0.02609,0.00372 -0.04471,0.01044 -0.08197,0.01044c-0.06774,0.00341 -0.13561,-0.00363 -0.2012,-0.02087c-0.30429,-0.07964 -0.51534,-0.35613 -0.51193,-0.67066c0.00298,-0.05664 0.0015,-0.05067 0.01044,-0.11178c0.01876,-0.11904 0.06748,-0.23134 0.14158,-0.32638c0.09172,-0.11463 0.21792,-0.19667 0.35991,-0.23398c0.12097,-0.03137 0.24836,-0.02775 0.36736,0.01043c0.11922,0.03801 0.19896,0.09539 0.26677,0.15723c0.09888,0.09703 0.16726,0.22083 0.19672,0.35619c0.02011,0.0939 0.0164,0.14829 0.0164,0.14829" fill="#55585b"/></g></g></g></svg>