<svg version="1.1" xmlns="http://www.w3.org/2000/svg" xmlns:xlink="http://www.w3.org/1999/xlink" width="58.01276" height="97.60866" viewBox="0,0,58.01276,97.60866"><g transform="translate(-316.44957,-97.07672)"><g data-paper-data="{&quot;isPaintingLayer&quot;:true}" fill-rule="nonzero" stroke-linecap="round" stroke-linejoin="miter" stroke-miterlimit="10" stroke-dasharray="" stroke-dashoffset="0" style="mix-blend-mode: normal"><path d="M361.63795,98.18817c2.47841,-0.48392 5.40683,0.02548 7.66089,1.29669c1.91823,1.08274 3.94404,3.07019 4.17567,5.30545c0.20723,2.02879 -1.95143,3.85134 -3.17432,5.61587c-0.97314,1.41611 -1.57899,4.34395 -3.41614,4.3659c-2.34671,0.0079 -3.83949,-2.92815 -5.96717,-4.03261c-1.55797,-0.81009 -4.7671,0.25164 -5.09186,-1.42318c-0.45353,-2.81922 2.23631,-5.29362 3.50858,-7.7183c0.63672,-1.21319 0.95479,-3.14651 2.30435,-3.40982z" fill="#ff9400" stroke="none" stroke-width="1"/><path d="M357.6973,106.54581c2.3562,-0.76705 5.13683,0.05846 7.35393,1.16933c1.75911,0.88086 4.18204,2.52323 4.13131,4.5745c-0.08613,3.34672 -2.48186,6.58675 -4.6953,9.24464c-0.54332,0.6579 -1.43366,-0.74596 -2.24061,-1.04854c-1.13113,-0.6185 -2.27043,-1.25247 -3.56947,-1.71623c-2.11759,-0.75741 -5.06352,-0.30382 -6.42983,-2.09207c-1.0483,-1.37776 0.12065,-3.4364 0.92203,-4.80964c1.07832,-2.12114 2.38249,-4.62609 4.52792,-5.322z" fill="#b5b5b5" stroke="none" stroke-width="1"/><path d="M319.66876,175.22083c1.9883,-2.04821 4.7323,-5.85133 7.26969,-4.55566c3.61305,1.79597 5.6224,6.96552 5.28113,11.01961c-0.24337,2.89401 -4.40979,3.91791 -6.63619,5.9151c-1.42898,1.11675 -2.91433,2.16808 -4.33768,3.43268c-0.95586,0.84664 -1.67684,1.84643 -2.83421,2.58606c-0.32662,0.20768 -1.1498,1.03533 -1.14049,-0.14986c0.04274,-4.72771 0.70743,-9.47719 1.33755,-14.15257c0.18069,-1.34504 0.08968,-3.07176 1.06021,-4.09538z" fill="#ffffcc" stroke="none" stroke-width="1"/><path d="M329.95804,155.63144c6.96432,-12.8677 13.97427,-25.77534 21.03933,-38.71217c1.77504,-3.23479 0.76283,-2.18533 1.69372,-2.73592c1.25348,-0.79826 2.8744,-1.03774 4.46419,-0.86364c1.77526,0.17526 3.54011,0.87123 5.01691,1.99344c1.42728,1.05768 2.86603,2.55775 3.43268,4.33767c0.32133,1.08639 0.69237,-0.05984 -1.01982,3.34656c-6.95363,13.2754 -14.31035,26.46651 -21.40231,39.70864c-2.98255,5.56914 -5.8476,11.08295 -8.84323,16.53087c-0.6961,1.44625 -0.46318,2.09105 -1.2271,2.27515c-0.74515,0.17009 -1.23584,-0.93763 -1.91802,-1.2962c-0.69939,-0.3671 -1.41681,-0.88483 -2.20606,-0.86997c-0.7493,0.01455 -1.31767,0.74991 -2.03918,0.95026c-0.76082,0.21165 -1.83261,0.84212 -2.35592,0.27052c-0.6518,-0.71865 -0.09,-2.1352 -0.26469,-3.2833c-0.03182,-0.54367 0.1617,-1.27468 -0.34545,-1.78567c-0.47402,-0.42404 -1.29242,-0.06564 -1.88932,-0.19025c-0.85548,-0.18573 -3.16787,1.21381 -2.4941,-0.44374c2.67325,-6.66231 6.86761,-12.80453 10.35837,-19.23226z" fill="#ffff00" stroke="#000000" stroke-width="1.5"/><path d="M325.77412,179.9677l29.38724,-55.88823" fill="none" stroke="#000000" stroke-width="1.5"/><path d="M317.41501,193.25566c0,0 -0.01379,-0.61904 0.00585,-0.92739c0.07274,-1.12928 0.15762,-2.26092 0.27101,-3.38694c0.077,-0.76256 0.21203,-1.52006 0.29972,-2.28099c0.18865,-1.63706 0.38091,-3.27854 0.53035,-4.91913c0.06761,-0.74592 0.04597,-1.50127 0.12116,-2.24645c0.1152,-1.14343 0.44958,-3.42149 0.44958,-3.42149" fill="none" stroke="#000000" stroke-width="1.5"/><path d="M317.73177,193.93538c0,0 0.25725,0.00061 0.35713,-0.0691c0.40012,-0.2797 0.75839,-0.61873 1.11179,-0.95609c0.37652,-0.35961 0.70072,-0.77505 1.07724,-1.13466c0.3534,-0.33736 0.73941,-0.64026 1.11179,-0.95609c1.32343,-1.12226 2.60374,-2.30658 3.98055,-3.36359c0.99027,-0.76067 2.11099,-1.34503 3.11642,-2.08492c1.1565,-0.85136 2.25474,-1.78558 3.36992,-2.6897c0.4843,-0.39232 1.43437,-1.20375 1.43437,-1.20375" fill="none" stroke="#000000" stroke-width="1.5"/><path d="M317.7053,193.60705l-0.25573,-0.17282" fill="none" stroke="#000000" stroke-width="2"/><path d="M352.58745,113.64764c0,0 2.05168,-4.25235 3.2147,-6.3647c0.25223,-0.46968 0.31391,-0.79431 0.75466,-0.88699c1.43986,-0.30598 2.97267,-0.48766 4.42381,-0.11483c2.01237,0.51989 3.98093,1.5603 5.58132,2.99574c1.28784,0.99573 1.86643,2.69185 2.82788,4.08418c0.24066,0.34766 0.32346,-0.11295 0.21312,0.14403c-0.41161,0.99403 -0.97249,1.87911 -1.4806,2.87994c-0.75419,1.40265 -2.31019,4.3372 -2.31019,4.3372" fill="none" stroke="#000000" stroke-width="1.5"/><path d="M356.70574,106.17796c0,0 2.15283,-4.67681 3.48215,-6.79664c0.28758,-0.54159 0.47383,-1.14701 1.03691,-1.29262c1.24813,-0.36625 2.58904,-0.59995 3.8842,-0.28342c2.09523,0.51269 4.21419,1.28139 5.95395,2.55316c1.27671,0.94246 2.06745,2.38071 2.64938,3.81645c0.2695,0.46189 -0.0797,1.04349 -0.24997,1.53038c-0.36752,1.05152 -0.76664,2.09285 -1.28809,3.01817c-0.88423,1.70301 -2.92169,4.85527 -2.92169,4.85527" fill="none" stroke="#000000" stroke-width="1.5"/><path d="M359.13703,110.15754c0,0 -0.12784,-0.02121 0,0c0.51025,0.08654 1.03733,0.10683 1.53219,0.25934c0.49799,0.15338 0.95949,0.4131 1.4227,0.65102c0.49691,0.2551 0.9837,0.5344 1.45725,0.82958c0.50894,0.31725 1.05204,0.60046 1.49179,1.00815c0.39719,0.36776 0.68096,0.84638 0.99063,1.29036c0.37317,0.53469 1.05973,1.6475 1.05973,1.6475" fill="none" stroke="#000000" stroke-width="1.5"/><path d="M319.91545,187.02915c0.46687,-0.04957 0.96565,0.06957 1.36838,0.3051c0.4455,0.26134 0.78471,0.66255 1.08418,1.07293c0.19987,0.27478 0.39393,0.65738 0.31441,1.05067c-0.00818,0.21054 -0.21137,0.19057 -0.53805,0.47459c-1.30983,1.1389 -2.96925,3.66146 -3.98054,3.36359c-0.93487,-0.31265 -0.55269,-2.74964 -0.61598,-4.1416c-0.01574,-0.51417 -0.13172,-1.17494 0.25934,-1.53218c0.53705,-0.47589 1.40983,-0.52246 2.10826,-0.59312z" fill="#000000" stroke="none" stroke-width="1"/></g></g></svg>