<svg version="1.1" xmlns="http://www.w3.org/2000/svg" xmlns:xlink="http://www.w3.org/1999/xlink" width="27.88722" height="27.53863" viewBox="0,0,27.88722,27.53863"><g transform="translate(-226.05639,-176.23069)"><g stroke-miterlimit="10"><path d="M230.38157,183.11457c0,-1.59484 1.29288,-2.88771 2.88771,-2.88771c1.59484,0 2.88771,1.29288 2.88771,2.88771c0,1.59484 -1.29288,2.88771 -2.88771,2.88771c-1.59484,0 -2.88771,-1.29287 -2.88771,-2.88771z" fill="none" stroke-opacity="0.46275" stroke="#b0b0b0" stroke-width="4"/><path d="M244.00975,183.12066c0,-1.59484 1.29288,-2.88771 2.88771,-2.88771c1.59484,0 2.88771,1.29288 2.88771,2.88771c0,1.59484 -1.29288,2.88771 -2.88771,2.88771c-1.59484,0 -2.88771,-1.29288 -2.88771,-2.88771z" fill="none" stroke-opacity="0.46275" stroke="#b0b0b0" stroke-width="4"/><path d="M235.99029,196.7891c-0.00293,1.59484 -1.29818,2.88532 -2.89302,2.88239c-1.59484,-0.00293 -2.88533,-1.29818 -2.8824,-2.89301c0.00293,-1.59484 1.29818,-2.88533 2.89302,-2.8824c1.59484,0.00293 2.88533,1.29818 2.8824,2.89302z" fill="none" stroke-opacity="0.46275" stroke="#b0b0b0" stroke-width="4"/><path d="M243.84932,196.88542c0,-1.59484 1.29288,-2.88771 2.88771,-2.88771c1.59484,0 2.88771,1.29288 2.88771,2.88771c0,1.59484 -1.29288,2.88771 -2.88771,2.88771c-1.59484,0 -2.88771,-1.29288 -2.88771,-2.88771z" fill="none" stroke-opacity="0.46275" stroke="#b0b0b0" stroke-width="4"/><path d="M226.05639,203.76931v-27.53863h27.88722v27.53863z" fill-opacity="0.01176" fill="#ffffff" stroke="none" stroke-width="0"/></g></g></svg>