<svg version="1.1" xmlns="http://www.w3.org/2000/svg" xmlns:xlink="http://www.w3.org/1999/xlink" width="48.31997" height="23.07269" viewBox="0,0,48.31997,23.07269"><g transform="translate(-215.84001,-178.46365)"><g fill="#000000" stroke="none" stroke-width="0.5" stroke-miterlimit="10"><path d="M215.84004,194.17658c-0.01702,-3.42989 8.72336,-11.14918 11.98877,-12.03071c2.22982,-0.60197 5.88502,-0.09607 6.69369,2.33191c0.79299,2.3809 0.58957,3.73752 0.38735,6.32183c-0.03028,0.38693 -0.57733,1.32698 -0.23729,1.13989c0.8906,-0.49 9.59704,-11.48088 12.71341,-8.2061c3.35653,3.52716 -0.80742,6.70363 -0.42727,11.20832c0.13923,1.64988 2.09951,-2.56109 3.12573,-3.86046c3.03217,-3.83923 6.10315,-7.65216 9.32824,-11.33081c1.04977,-1.1974 2.9405,-2.01393 4.30889,-0.33198c2.26385,2.78261 -4.95729,8.70564 -5.34148,9.17267c-2.53115,3.07696 -7.77818,13.1054 -12.9051,12.94326c-3.95144,-0.12496 -3.55799,-6.11218 -3.49854,-8.3643c0.01939,-0.73437 1.08933,-2.52703 0.45508,-2.15637c-2.64666,1.54672 -6.83814,10.37147 -11.21428,7.88194c-3.25605,-1.85232 -1.75477,-5.65186 -1.28364,-8.62986c0.16897,-1.06805 0.25483,-3.50846 -0.76613,-3.15222c-2.57295,0.89777 -4.76902,3.46231 -6.45947,5.36935c-1.08412,1.22301 -1.44529,3.79408 -3.0795,3.81528c-0.37202,0.21965 -0.8059,0.34568 -1.26921,0.34568c-1.26484,0 -2.31029,-0.9393 -2.47686,-2.1584c-0.02706,-0.09751 -0.04185,-0.2002 -0.04239,-0.30891z"/></g></g></svg>